<?xml version="1.0" encoding="UTF-8" standalone="no"?>
<!-- Created with Inkscape (http://www.inkscape.org/) -->

<svg
   xmlns:dc="http://purl.org/dc/elements/1.1/"
   xmlns:cc="http://creativecommons.org/ns#"
   xmlns:rdf="http://www.w3.org/1999/02/22-rdf-syntax-ns#"
   xmlns:svg="http://www.w3.org/2000/svg"
   xmlns="http://www.w3.org/2000/svg"
   xmlns:sodipodi="http://sodipodi.sourceforge.net/DTD/sodipodi-0.dtd"
   xmlns:inkscape="http://www.inkscape.org/namespaces/inkscape"
   width="64.066963mm"
   height="65.189133mm"
   viewBox="0 0 64.066963 65.189133"
   version="1.1"
   id="svg2637"
   inkscape:version="0.92.4 (5da689c313, 2019-01-14)"
   sodipodi:docname="black vertical.svg">
  <defs
     id="defs2631">
    <clipPath
       id="clipPath1976"
       clipPathUnits="userSpaceOnUse">
      <path
         inkscape:connector-curvature="0"
         id="path1974"
         d="M 0,841.89 H 481.89 V 0 H 0 Z" />
    </clipPath>
    <clipPath
       clipPathUnits="userSpaceOnUse"
       id="clipPath2943">
      <rect
         id="rect2945"
         width="181.60715"
         height="203.03572"
         x="139.6731"
         y="-765.04413"
         style="stroke-width:0.75"
         transform="scale(1,-1)" />
    </clipPath>
  </defs>
  <sodipodi:namedview
     id="base"
     pagecolor="#ffffff"
     bordercolor="#666666"
     borderopacity="1.0"
     inkscape:pageopacity="0.0"
     inkscape:pageshadow="2"
     inkscape:zoom="0.7"
     inkscape:cx="491.13823"
     inkscape:cy="-27.051601"
     inkscape:document-units="mm"
     inkscape:current-layer="layer1"
     showgrid="false"
     inkscape:window-width="1366"
     inkscape:window-height="706"
     inkscape:window-x="-8"
     inkscape:window-y="-8"
     inkscape:window-maximized="1" />
  <metadata
     id="metadata2634">
    <rdf:RDF>
      <cc:Work
         rdf:about="">
        <dc:format>image/svg+xml</dc:format>
        <dc:type
           rdf:resource="http://purl.org/dc/dcmitype/StillImage" />
        <dc:title></dc:title>
      </cc:Work>
    </rdf:RDF>
  </metadata>
  <g
     inkscape:label="Layer 1"
     inkscape:groupmode="layer"
     id="layer1"
     transform="translate(-70.114582,-96.117416)">
    <g
       transform="matrix(0.35277777,0,0,-0.35277777,18.573162,366.75216)"
       clip-path="url(#clipPath2943)"
       id="g1972">
      <g
         transform="translate(276.0859,705.1963)"
         id="g1978">
        <path
           inkscape:connector-curvature="0"
           id="path1980"
           style="fill:#100f0d;fill-opacity:1;fill-rule:nonzero;stroke:none"
           d="m 0,0 c -0.144,0.249 -0.295,0.493 -0.447,0.738 l -0.126,0.205 c -0.465,0.753 -0.903,1.431 -1.34,2.07 -2.633,3.862 -3.679,7.804 -3.195,12.053 l 0.033,0.287 c 0.221,1.926 0.448,3.918 0.192,5.871 -0.214,1.626 -0.6,3.163 -1.148,4.569 -1.497,3.84 -4.322,6.988 -8.637,9.624 -0.418,0.256 -0.967,0.124 -1.222,-0.295 -0.256,-0.419 -0.124,-0.967 0.295,-1.223 3.97,-2.425 6.556,-5.288 7.908,-8.752 0.502,-1.291 0.842,-2.65 1.041,-4.154 0.227,-1.737 0.012,-3.618 -0.196,-5.438 L -6.875,15.267 C -7.409,10.576 -6.267,6.24 -3.382,2.01 -2.961,1.394 -2.538,0.739 -2.088,0.009 l 0.13,-0.209 c 0.141,-0.228 0.283,-0.456 0.417,-0.688 0.561,-0.971 0.769,-1.635 0.635,-2.028 -0.135,-0.403 -0.729,-0.821 -1.813,-1.279 -0.124,-0.052 -0.247,-0.106 -0.373,-0.161 l -1.067,-0.471 c -0.435,-0.192 -0.643,-0.692 -0.472,-1.136 0.157,-0.404 0.248,-0.806 0.279,-1.228 0.101,-1.393 -0.584,-2.654 -1.31,-3.989 -0.347,-0.638 -0.705,-1.298 -0.989,-1.995 -0.572,-1.401 -0.911,-2.96 -0.953,-4.392 -0.056,-1.83 -0.473,-3.083 -1.241,-3.723 -0.661,-0.552 -1.638,-0.722 -2.991,-0.519 -2.353,0.354 -4.578,-0.508 -7.034,-1.584 l -0.081,-0.041 c -3.231,-1.831 -6.711,-3.108 -10.344,-3.795 -2.065,-0.391 -4.184,-0.589 -6.302,-0.589 h -11.427 c -0.492,0 -0.891,-0.398 -0.891,-0.889 0,-0.491 0.399,-0.89 0.891,-0.89 h 11.427 c 2.228,0 4.459,0.209 6.633,0.62 3.811,0.721 7.46,2.057 10.85,3.973 2.258,0.988 4.135,1.719 6.014,1.436 1.857,-0.279 3.336,0.028 4.395,0.913 1.192,0.994 1.806,2.641 1.878,5.034 0.037,1.225 0.329,2.565 0.822,3.774 0.248,0.606 0.568,1.195 0.906,1.818 0.816,1.501 1.661,3.054 1.521,4.967 -0.023,0.316 -0.068,0.623 -0.141,0.927 l 0.339,0.149 c 0.118,0.052 0.235,0.102 0.352,0.152 1.163,0.49 2.406,1.154 2.808,2.352 C 1.179,-2.298 0.609,-1.057 0,0" />
      </g>
      <g
         transform="translate(221.4072,739.1245)"
         id="g1982">
        <path
           inkscape:connector-curvature="0"
           id="path1984"
           style="fill:#100f0d;fill-opacity:1;fill-rule:nonzero;stroke:none"
           d="m 0,0 c 5.633,3.856 12.23,5.893 19.082,5.893 4.123,0 8.162,-0.74 12.006,-2.201 0.288,-0.109 0.612,-0.062 0.857,0.125 0.228,0.175 0.358,0.449 0.348,0.734 L 32.289,4.62 C 32.25,5.009 31.967,5.315 31.605,5.398 27.594,6.907 23.38,7.672 19.082,7.672 11.87,7.672 4.924,5.527 -1.005,1.468 -2.731,0.285 -4.367,-1.06 -5.861,-2.528 -12.732,-9.277 -16.517,-18.297 -16.517,-27.927 v -11.64 c 0,-0.491 0.4,-0.889 0.89,-0.889 0.491,0 0.889,0.398 0.889,0.889 v 11.64 c 0,9.149 3.595,17.718 10.123,24.13 C -3.193,-2.401 -1.642,-1.124 0,0" />
      </g>
      <g
         transform="translate(205.7803,694.8145)"
         id="g1986">
        <path
           inkscape:connector-curvature="0"
           id="path1988"
           style="fill:#100f0d;fill-opacity:1;fill-rule:nonzero;stroke:none"
           d="m 0,0 c -0.491,0 -0.889,-0.398 -0.889,-0.889 v -33.153 c 0,-0.491 0.398,-0.889 0.889,-0.889 0.491,0 0.889,0.398 0.889,0.889 V -0.889 C 0.889,-0.398 0.491,0 0,0" />
      </g>
      <g
         transform="translate(241.3789,680.2705)"
         id="g1990">
        <path
           inkscape:connector-curvature="0"
           id="path1992"
           style="fill:#100f0d;fill-opacity:1;fill-rule:nonzero;stroke:none"
           d="M 0,0 C 0,0.491 -0.398,0.889 -0.89,0.889 H -16.1 c -0.491,0 -0.889,-0.398 -0.889,-0.889 v -8.084 c 0,-0.491 0.398,-0.889 0.889,-0.889 0.492,0 0.89,0.398 0.89,0.889 v 7.195 H -0.89 C -0.398,-0.889 0,-0.491 0,0" />
      </g>
      <g
         transform="translate(267.2539,720.978)"
         id="g1994">
        <path
           inkscape:connector-curvature="0"
           id="path1996"
           style="fill:#100f0d;fill-opacity:1;fill-rule:nonzero;stroke:none"
           d="M 0,0 C 0.202,1.778 0.396,3.457 0.2,4.95 0.136,5.437 -0.311,5.781 -0.798,5.716 -1.285,5.652 -1.628,5.206 -1.564,4.719 -1.396,3.442 -1.577,1.868 -1.768,0.201 L -1.8,-0.087 c -0.633,-5.553 0.756,-10.874 4.127,-15.815 0.268,-0.393 0.537,-0.804 0.819,-1.248 l -3.306,-1.453 c -0.437,-0.191 -0.644,-0.692 -0.472,-1.135 l 1.308,-3.374 0.033,-0.134 c 0.01,-0.307 -0.515,-1.272 -0.861,-1.91 -0.377,-0.694 -0.804,-1.48 -1.168,-2.371 -0.749,-1.835 -1.175,-3.809 -1.232,-5.707 -0.009,-0.235 -0.022,-0.432 -0.041,-0.595 -0.496,0.067 -1.004,0.101 -1.51,0.101 -2.703,0 -5.067,-0.938 -7.454,-1.984 l -0.176,-0.077 -0.081,-0.041 -0.169,-0.096 c -2.923,-1.656 -6.089,-2.802 -9.412,-3.407 -0.483,-0.088 -0.803,-0.551 -0.715,-1.034 0.078,-0.43 0.452,-0.73 0.874,-0.73 l 0.16,0.014 c 3.518,0.64 6.874,1.855 9.97,3.61 l 0.265,0.133 c 2.204,0.966 4.38,1.834 6.738,1.834 0.469,0 0.939,-0.035 1.397,-0.104 0.262,-0.039 0.501,-0.059 0.722,-0.059 h 0.002 l 0.155,0.005 c 0.356,0.021 0.667,0.254 0.786,0.592 0.105,0.301 0.237,0.855 0.266,1.784 0.051,1.689 0.432,3.448 1.102,5.089 0.326,0.8 0.729,1.54 1.084,2.193 0.606,1.117 1.13,2.081 1.071,2.888 -0.016,0.225 -0.063,0.432 -0.148,0.649 l -1,2.58 3.468,1.526 c 0.234,0.104 0.412,0.303 0.489,0.547 0.077,0.244 0.045,0.509 -0.087,0.728 l -0.164,0.264 c -0.436,0.706 -0.842,1.335 -1.244,1.924 -3.123,4.579 -4.411,9.495 -3.829,14.612 z" />
      </g>
      <g
         transform="translate(240.4893,743.0151)"
         id="g1998">
        <path
           inkscape:connector-curvature="0"
           id="path2000"
           style="fill:#100f0d;fill-opacity:1;fill-rule:nonzero;stroke:none"
           d="m 0,0 c -6.393,0 -12.563,-1.897 -17.842,-5.485 -0.406,-0.276 -0.512,-0.829 -0.235,-1.235 0.276,-0.407 0.829,-0.512 1.235,-0.236 4.983,3.387 10.807,5.177 16.842,5.177 3.662,0 7.249,-0.657 10.663,-1.954 l 1.911,-0.726 c 2.002,-0.809 3.693,-1.628 5.169,-2.504 3.444,-2.043 5.555,-4.293 6.642,-7.082 0.136,-0.351 0.472,-0.567 0.829,-0.567 0.108,0 0.217,0.02 0.323,0.061 0.457,0.179 0.684,0.694 0.505,1.152 -1.221,3.135 -3.639,5.741 -7.392,7.966 -1.554,0.922 -3.324,1.78 -5.427,2.63 l -1.928,0.732 C 7.679,-0.697 3.879,0 0,0" />
      </g>
      <g
         transform="translate(219.2588,733.6855)"
         id="g2002">
        <path
           inkscape:connector-curvature="0"
           id="path2004"
           style="fill:#100f0d;fill-opacity:1;fill-rule:nonzero;stroke:none"
           d="m 0,0 c -0.347,0.347 -0.911,0.347 -1.258,0 -6.015,-6.016 -9.329,-14.002 -9.329,-22.488 v -50.045 c 0,-0.491 0.399,-0.889 0.89,-0.889 0.491,0 0.889,0.398 0.889,0.889 v 50.045 c 0,8.011 3.128,15.55 8.808,21.23 C 0.348,-0.91 0.348,-0.347 0,0" />
      </g>
      <g
         transform="translate(245.9014,683.6909)"
         id="g2006">
        <path
           inkscape:connector-curvature="0"
           id="path2008"
           style="fill:#100f0d;fill-opacity:1;fill-rule:nonzero;stroke:none"
           d="M 0,0 C 2.955,0.582 5.774,1.626 8.383,3.104 L 8.68,3.272 8.992,3.41 c 2.18,0.955 4.53,1.905 7.196,2.111 0.491,0.038 0.857,0.466 0.819,0.955 C 16.969,6.966 16.544,7.33 16.052,7.294 13.107,7.067 10.598,6.055 8.278,5.039 L 7.924,4.883 7.843,4.842 7.506,4.652 C 5.064,3.268 2.424,2.29 -0.345,1.745 -2.012,1.417 -3.717,1.25 -5.412,1.25 h -18.991 c -0.492,0 -0.889,-0.398 -0.889,-0.889 v -16.747 c 0,-0.491 0.397,-0.889 0.889,-0.889 0.491,0 0.888,0.398 0.888,0.889 v 15.857 h 18.103 c 1.81,0 3.632,0.178 5.412,0.529" />
      </g>
      <g
         transform="translate(262.4326,694.8794)"
         id="g2010">
        <path
           inkscape:connector-curvature="0"
           id="path2012"
           style="fill:#100f0d;fill-opacity:1;fill-rule:nonzero;stroke:none"
           d="m 0,0 c -0.186,-0.455 0.033,-0.974 0.487,-1.159 0.111,-0.045 0.224,-0.066 0.335,-0.066 0.352,0 0.684,0.208 0.824,0.553 0.407,0.996 0.881,1.869 1.262,2.57 0.094,0.171 0.207,0.38 0.312,0.579 0.12,0.227 0.134,0.495 0.042,0.735 L 1.322,8.216 4.056,9.418 C 4.289,9.52 4.467,9.717 4.545,9.96 4.622,10.202 4.593,10.466 4.463,10.685 1.566,15.571 0.413,20.804 1.03,26.239 l 0.033,0.29 c 0.177,1.54 0.343,2.994 0.208,4.028 -0.135,1.036 -0.363,1.954 -0.695,2.806 -0.584,1.496 -1.836,3.763 -5.969,6.18 -0.424,0.248 -0.969,0.105 -1.216,-0.319 -0.248,-0.424 -0.106,-0.969 0.318,-1.217 3.654,-2.136 4.724,-4.042 5.21,-5.289 0.278,-0.717 0.472,-1.5 0.589,-2.392 0.107,-0.817 -0.047,-2.167 -0.211,-3.596 L -0.736,26.44 C -1.363,20.934 -0.297,15.626 2.436,10.649 L -0.172,9.502 C -0.608,9.311 -0.815,8.81 -0.644,8.367 L 1.456,2.95 1.346,2.748 C 0.943,2.008 0.442,1.087 0,0" />
      </g>
      <g
         transform="translate(225.7607,732.9243)"
         id="g2014">
        <path
           inkscape:connector-curvature="0"
           id="path2016"
           style="fill:#100f0d;fill-opacity:1;fill-rule:nonzero;stroke:none"
           d="m 0,0 c 4.356,2.964 9.451,4.53 14.729,4.53 3.201,0 6.335,-0.574 9.32,-1.708 0.459,-0.175 0.972,0.057 1.146,0.516 0.175,0.459 -0.056,0.973 -0.515,1.147 -3.185,1.21 -6.534,1.824 -9.951,1.824 -5.637,0 -11.077,-1.673 -15.73,-4.838 -1.623,-1.104 -3.135,-2.383 -4.495,-3.801 -5.037,-5.25 -7.811,-12.138 -7.811,-19.396 v -8.711 c 0,-0.491 0.399,-0.889 0.89,-0.889 0.491,0 0.889,0.398 0.889,0.889 v 8.711 c 0,6.796 2.598,13.248 7.315,18.165 C -2.938,-2.233 -1.521,-1.035 0,0" />
      </g>
      <g
         transform="translate(213.3428,698.3721)"
         id="g2018">
        <path
           inkscape:connector-curvature="0"
           id="path2020"
           style="fill:#100f0d;fill-opacity:1;fill-rule:nonzero;stroke:none"
           d="M 0,0 C -0.49,0 -0.889,-0.398 -0.889,-0.889 V -36.12 c 0,-0.491 0.399,-0.889 0.889,-0.889 0.491,0 0.89,0.398 0.89,0.889 V -0.889 C 0.89,-0.398 0.491,0 0,0" />
      </g>
      <g
         transform="translate(240.4893,686.9443)"
         id="g2022">
        <path
           inkscape:connector-curvature="0"
           id="path2024"
           style="fill:#100f0d;fill-opacity:1;fill-rule:nonzero;stroke:none"
           d="M 0,0 C 0.491,0 0.889,0.398 0.889,0.889 0.889,1.38 0.491,1.779 0,1.779 h -19.583 c -0.491,0 -0.889,-0.399 -0.889,-0.89 0,-0.491 0.398,-0.889 0.889,-0.889 z" />
      </g>
      <g
         transform="translate(245.6748,687.5278)"
         id="g2026">
        <path
           inkscape:connector-curvature="0"
           id="path2028"
           style="fill:#100f0d;fill-opacity:1;fill-rule:nonzero;stroke:none"
           d="M 0,0 0.197,0.022 C 2.498,0.547 4.702,1.4 6.745,2.558 l 0.466,0.263 0.49,0.215 c 1.62,0.71 3.531,1.509 5.703,2.002 0.32,0.072 0.573,0.313 0.66,0.627 0.233,0.826 0.514,1.648 0.838,2.443 0.256,0.625 0.557,1.272 0.923,1.978 0.228,0.436 0.057,0.972 -0.38,1.199 -0.434,0.226 -0.971,0.055 -1.199,-0.381 C 13.855,10.15 13.531,9.455 13.257,8.78 12.973,8.085 12.719,7.371 12.5,6.65 10.488,6.145 8.666,5.401 6.987,4.665 L 6.454,4.432 6.373,4.391 5.868,4.106 C 3.976,3.033 1.936,2.242 -0.197,1.757 -0.676,1.648 -0.976,1.171 -0.866,0.692 -0.772,0.28 -0.406,0 0,0" />
      </g>
      <g
         transform="translate(261.7725,707.3154)"
         id="g2030">
        <path
           inkscape:connector-curvature="0"
           id="path2032"
           style="fill:#100f0d;fill-opacity:1;fill-rule:nonzero;stroke:none"
           d="m 0,0 c -1.93,4.531 -2.625,9.319 -2.065,14.231 l 0.032,0.295 c 0.164,1.434 0.284,2.573 0.216,3.103 -0.097,0.73 -0.25,1.36 -0.471,1.925 -0.588,1.509 -2.004,2.907 -4.327,4.274 -1.166,0.685 -2.575,1.365 -4.209,2.028 l -1.851,0.703 c -2.755,1.047 -5.651,1.577 -8.608,1.577 -4.853,0 -9.539,-1.434 -13.553,-4.148 -0.406,-0.275 -0.514,-0.828 -0.238,-1.235 0.275,-0.407 0.827,-0.514 1.234,-0.238 3.718,2.514 8.061,3.843 12.557,3.843 2.74,0 5.425,-0.492 7.976,-1.462 l 1.832,-0.696 c 1.536,-0.623 2.867,-1.264 3.957,-1.906 1.94,-1.14 3.142,-2.279 3.574,-3.386 0.167,-0.429 0.286,-0.924 0.362,-1.511 0.047,-0.355 -0.139,-1.976 -0.219,-2.673 L -3.834,14.432 C -4.395,9.504 -3.767,4.692 -1.97,0.117 L -4.346,-0.928 C -4.796,-1.125 -5,-1.65 -4.802,-2.1 c 0.147,-0.333 0.472,-0.531 0.815,-0.531 0.12,0 0.24,0.024 0.357,0.075 l 3.17,1.393 C -0.014,-0.967 0.191,-0.448 0,0" />
      </g>
      <g
         transform="translate(223.7998,727.5576)"
         id="g2034">
        <path
           inkscape:connector-curvature="0"
           id="path2036"
           style="fill:#100f0d;fill-opacity:1;fill-rule:nonzero;stroke:none"
           d="m 0,0 c -0.363,0.33 -0.926,0.304 -1.256,-0.06 -4.068,-4.475 -6.308,-10.263 -6.308,-16.3 v -47.241 c 0,-0.491 0.398,-0.889 0.889,-0.889 0.491,0 0.889,0.398 0.889,0.889 v 47.241 c 0,5.593 2.076,10.957 5.847,15.104 C 0.391,-0.893 0.363,-0.33 0,0" />
      </g>
      <g
         transform="translate(228.4697,690.7256)"
         id="g2038">
        <path
           inkscape:connector-curvature="0"
           id="path2040"
           style="fill:#100f0d;fill-opacity:1;fill-rule:nonzero;stroke:none"
           d="m 0,0 h 12.02 c 1.199,0 2.406,0.107 3.588,0.318 2.288,0.408 4.468,1.193 6.481,2.333 l 0.632,0.358 0.668,0.293 c 1.237,0.542 2.717,1.164 4.329,1.669 0.262,0.083 0.472,0.282 0.567,0.541 0.104,0.278 0.211,0.554 0.321,0.827 0.104,0.251 0.211,0.504 0.327,0.761 0.096,0.217 0.104,0.464 0.017,0.685 l -3.332,8.597 2.472,1.086 c 0.41,0.181 0.623,0.639 0.494,1.069 -1.227,4.099 -1.598,8.375 -1.105,12.71 l 0.036,0.316 c 0.094,0.826 0.192,1.729 0.207,2.162 l -0.01,0.165 c -0.055,0.352 -0.126,0.639 -0.222,0.885 -0.111,0.281 -0.685,1.31 -3.4,2.765 -0.857,0.459 -1.858,0.923 -2.994,1.386 l -1.812,0.688 c -0.245,0.093 -0.493,0.182 -0.741,0.266 -2.101,0.706 -4.295,1.065 -6.523,1.065 -4.096,0 -8.051,-1.211 -11.44,-3.502 C -1.108,36.301 -2.616,34.917 -3.9,33.33 -6.836,29.702 -8.452,25.136 -8.452,20.472 V 0.889 C -8.452,0.398 -8.055,0 -7.563,0 c 0.491,0 0.888,0.398 0.888,0.889 v 19.583 c 0,4.258 1.477,8.427 4.156,11.739 1.174,1.451 2.552,2.715 4.095,3.758 3.093,2.092 6.704,3.197 10.444,3.197 2.035,0 4.039,-0.327 5.955,-0.972 0.227,-0.077 0.454,-0.158 0.678,-0.243 l 1.79,-0.68 c 1.062,-0.432 2.005,-0.869 2.807,-1.299 1.97,-1.056 2.515,-1.766 2.602,-1.894 0.024,-0.071 0.056,-0.191 0.088,-0.376 -0.024,-0.473 -0.145,-1.527 -0.194,-1.954 l -0.034,-0.3 c -0.49,-4.309 -0.171,-8.565 0.95,-12.664 L 24.123,17.668 C 23.688,17.477 23.48,16.976 23.652,16.533 L 27.159,7.485 C 27.091,7.326 27.024,7.169 26.96,7.011 26.896,6.854 26.832,6.695 26.771,6.535 25.241,6.032 23.85,5.446 22.675,4.931 L 21.965,4.62 21.884,4.579 21.212,4.199 C 19.376,3.158 17.386,2.442 15.297,2.069 14.217,1.876 13.113,1.779 12.02,1.779 H 0 C -0.491,1.779 -0.89,1.38 -0.89,0.889 -0.89,0.398 -0.491,0 0,0" />
      </g>
      <g
         transform="translate(223.7988,695.3965)"
         id="g2042">
        <path
           inkscape:connector-curvature="0"
           id="path2044"
           style="fill:#100f0d;fill-opacity:1;fill-rule:nonzero;stroke:none"
           d="M 0,0 C 0,-0.491 0.397,-0.889 0.889,-0.889 H 16.69 c 0.492,0 0.89,0.398 0.89,0.889 0,0.491 -0.398,0.889 -0.89,0.889 H 1.778 V 7.091 C 1.778,7.582 1.381,7.98 0.889,7.98 0.397,7.98 0,7.582 0,7.091 Z" />
      </g>
      <g
         transform="translate(247.7969,710.415)"
         id="g2046">
        <path
           inkscape:connector-curvature="0"
           id="path2048"
           style="fill:#100f0d;fill-opacity:1;fill-rule:nonzero;stroke:none"
           d="M 0,0 C -0.458,-0.177 -0.686,-0.693 -0.508,-1.151 L 3.196,-10.71 C 2.676,-10.926 2.21,-11.128 1.829,-11.295 L 0.941,-11.684 0.86,-11.725 0.021,-12.2 c -1.392,-0.789 -2.9,-1.346 -4.48,-1.654 -0.482,-0.094 -0.797,-0.561 -0.703,-1.043 0.083,-0.425 0.455,-0.719 0.872,-0.719 l 0.171,0.016 c 1.768,0.345 3.457,0.968 5.016,1.852 l 0.801,0.453 0.845,0.371 c 0.557,0.244 1.302,0.566 2.127,0.892 0.455,0.179 0.679,0.693 0.502,1.148 L 1.151,-0.508 C 0.973,-0.05 0.459,0.177 0,0" />
      </g>
      <g
         transform="translate(252.3057,723.417)"
         id="g2050">
        <path
           inkscape:connector-curvature="0"
           id="path2052"
           style="fill:#100f0d;fill-opacity:1;fill-rule:nonzero;stroke:none"
           d="M 0,0 C 0.036,0.329 -0.114,0.65 -0.389,0.835 -0.624,0.993 -0.893,1.157 -1.185,1.323 -1.613,1.565 -2.155,1.415 -2.398,0.987 -2.64,0.56 -2.489,0.017 -2.063,-0.225 l 0.233,-0.134 c -0.027,-0.238 -0.051,-0.456 -0.051,-0.456 -0.445,-3.91 -0.287,-7.808 0.468,-11.588 0.085,-0.422 0.456,-0.715 0.871,-0.715 l 0.176,0.018 c 0.481,0.096 0.794,0.565 0.697,1.046 -0.719,3.598 -0.869,7.312 -0.445,11.038 0,0 0.093,0.819 0.114,1.016" />
      </g>
      <g
         transform="translate(231.6611,723.4077)"
         id="g2054">
        <path
           inkscape:connector-curvature="0"
           id="path2056"
           style="fill:#100f0d;fill-opacity:1;fill-rule:nonzero;stroke:none"
           d="m 0,0 c 0.172,0 0.346,0.049 0.497,0.153 2.468,1.668 5.349,2.549 8.331,2.549 1.385,0 2.757,-0.19 4.077,-0.566 0.134,-0.038 0.23,-0.063 0.308,-0.084 0.164,-0.044 0.225,-0.06 0.482,-0.157 0.459,-0.175 0.972,0.056 1.148,0.515 0.175,0.459 -0.057,0.973 -0.516,1.147 -0.329,0.125 -0.444,0.158 -0.658,0.214 -0.07,0.019 -0.156,0.042 -0.276,0.076 -1.48,0.421 -3.014,0.634 -4.565,0.634 -3.34,0 -6.564,-0.987 -9.327,-2.855 C -0.905,1.351 -1.013,0.798 -0.737,0.391 -0.565,0.137 -0.285,0 0,0" />
      </g>
      <g
         transform="translate(228.416,721.4199)"
         id="g2058">
        <path
           inkscape:connector-curvature="0"
           id="path2060"
           style="fill:#100f0d;fill-opacity:1;fill-rule:nonzero;stroke:none"
           d="M 0,0 C -0.392,0.297 -0.95,0.219 -1.246,-0.173 -3.452,-3.09 -4.618,-6.565 -4.618,-10.222 v -3.043 c 0,-0.491 0.399,-0.889 0.89,-0.889 0.491,0 0.889,0.398 0.889,0.889 v 3.043 c 0,3.267 1.042,6.371 3.012,8.976 C 0.469,-0.854 0.392,-0.296 0,0" />
      </g>
      <g
         transform="translate(227.5801,699.1782)"
         id="g2062">
        <path
           inkscape:connector-curvature="0"
           id="path2064"
           style="fill:#100f0d;fill-opacity:1;fill-rule:nonzero;stroke:none"
           d="m 0,0 c 0,-0.491 0.397,-0.889 0.889,-0.889 h 12.02 c 1.106,0 2.209,0.143 3.282,0.425 1.071,0.282 2.101,0.7 3.06,1.244 l 0.903,0.511 c 0.384,0.218 0.551,0.684 0.391,1.096 l -2.047,5.28 C 18.321,8.125 17.806,8.353 17.348,8.175 16.89,7.998 16.662,7.482 16.84,7.024 L 18.609,2.46 18.375,2.328 C 17.548,1.859 16.661,1.499 15.738,1.256 14.813,1.013 13.862,0.889 12.909,0.889 H 1.779 V 12.02 c 0,3.698 1.836,7.147 4.913,9.227 1.841,1.245 3.991,1.903 6.217,1.903 0.677,0 1.353,-0.061 2.011,-0.181 0.658,-0.12 1.309,-0.303 1.937,-0.541 l 1.7,-0.646 c 0.116,-0.047 0.229,-0.094 0.337,-0.14 -0.01,-0.157 -0.019,-0.314 -0.026,-0.471 -0.117,-2.334 -0.035,-4.682 0.241,-6.979 0.059,-0.487 0.5,-0.834 0.99,-0.776 0.487,0.058 0.835,0.501 0.776,0.989 -0.264,2.197 -0.342,4.444 -0.231,6.678 0.018,0.352 0.04,0.703 0.067,1.055 0.028,0.374 -0.18,0.725 -0.521,0.879 -0.285,0.128 -0.603,0.266 -0.98,0.42 l -1.721,0.654 c -0.728,0.276 -1.484,0.488 -2.249,0.628 -0.762,0.139 -1.547,0.21 -2.331,0.21 -2.583,0 -5.077,-0.764 -7.214,-2.208 C 2.129,20.309 0,16.309 0,12.02 Z" />
      </g>
      <g
         transform="translate(191.6191,483.8477)"
         id="g2066">
        <path
           inkscape:connector-curvature="0"
           id="path2068"
           style="fill:#100f0d;fill-opacity:1;fill-rule:nonzero;stroke:none"
           d="m 0,0 c -0.114,0.197 -0.233,0.391 -0.354,0.585 l -0.1,0.162 c -0.369,0.598 -0.716,1.134 -1.062,1.641 -2.087,3.061 -2.916,6.185 -2.532,9.553 l 0.027,0.227 c 0.173,1.527 0.354,3.105 0.151,4.653 -0.17,1.289 -0.476,2.507 -0.91,3.622 -1.186,3.043 -3.425,5.538 -6.845,7.627 -0.332,0.203 -0.766,0.098 -0.969,-0.234 -0.203,-0.332 -0.097,-0.766 0.235,-0.969 3.146,-1.922 5.195,-4.191 6.266,-6.936 0.399,-1.023 0.668,-2.1 0.825,-3.293 0.181,-1.376 0.01,-2.868 -0.155,-4.31 L -5.448,12.1 C -5.872,8.382 -4.967,4.945 -2.68,1.593 -2.347,1.105 -2.011,0.586 -1.655,0.007 l 0.103,-0.165 c 0.113,-0.181 0.225,-0.362 0.331,-0.546 0.444,-0.77 0.609,-1.295 0.503,-1.607 -0.107,-0.319 -0.577,-0.651 -1.437,-1.014 -0.098,-0.041 -0.196,-0.084 -0.295,-0.127 l -0.846,-0.374 c -0.345,-0.152 -0.51,-0.548 -0.374,-0.9 0.124,-0.32 0.196,-0.639 0.222,-0.973 0.079,-1.104 -0.464,-2.104 -1.039,-3.162 -0.275,-0.506 -0.559,-1.028 -0.784,-1.581 -0.454,-1.11 -0.722,-2.346 -0.755,-3.481 -0.045,-1.45 -0.375,-2.443 -0.984,-2.951 -0.524,-0.437 -1.299,-0.572 -2.371,-0.411 -1.866,0.28 -3.628,-0.403 -5.574,-1.256 l -0.065,-0.032 c -2.561,-1.451 -5.319,-2.463 -8.198,-3.008 -1.636,-0.309 -3.317,-0.466 -4.995,-0.466 h -9.057 c -0.39,0 -0.705,-0.316 -0.705,-0.705 0,-0.39 0.315,-0.705 0.705,-0.705 h 9.057 c 1.767,0 3.534,0.165 5.257,0.491 3.02,0.571 5.913,1.63 8.6,3.149 1.79,0.783 3.277,1.362 4.766,1.138 1.472,-0.221 2.644,0.022 3.485,0.723 0.943,0.788 1.429,2.094 1.487,3.99 0.029,0.971 0.262,2.033 0.652,2.992 0.196,0.48 0.449,0.946 0.717,1.44 0.647,1.19 1.316,2.421 1.206,3.937 -0.018,0.25 -0.055,0.494 -0.112,0.734 l 0.269,0.119 c 0.094,0.041 0.186,0.081 0.28,0.12 0.92,0.389 1.906,0.915 2.224,1.864 C 0.935,-1.821 0.483,-0.838 0,0" />
      </g>
      <g
         transform="translate(148.2832,510.7378)"
         id="g2070">
        <path
           inkscape:connector-curvature="0"
           id="path2072"
           style="fill:#100f0d;fill-opacity:1;fill-rule:nonzero;stroke:none"
           d="m 0,0 c 4.463,3.056 9.693,4.671 15.123,4.671 3.269,0 6.47,-0.587 9.516,-1.745 0.228,-0.086 0.485,-0.049 0.679,0.099 0.181,0.139 0.283,0.356 0.276,0.582 L 25.591,3.662 C 25.56,3.97 25.335,4.212 25.049,4.278 21.869,5.474 18.53,6.081 15.123,6.081 9.407,6.081 3.902,4.38 -0.796,1.163 c -1.37,-0.937 -2.665,-2.003 -3.85,-3.167 -5.446,-5.349 -8.445,-12.498 -8.445,-20.129 v -9.226 c 0,-0.389 0.317,-0.705 0.705,-0.705 0.39,0 0.705,0.316 0.705,0.705 v 9.226 c 0,7.25 2.849,14.042 8.023,19.123 C -2.532,-1.903 -1.301,-0.891 0,0" />
      </g>
      <g
         transform="translate(135.8975,475.6196)"
         id="g2074">
        <path
           inkscape:connector-curvature="0"
           id="path2076"
           style="fill:#100f0d;fill-opacity:1;fill-rule:nonzero;stroke:none"
           d="M 0,0 C -0.389,0 -0.705,-0.316 -0.705,-0.705 V -26.98 c 0,-0.389 0.316,-0.705 0.705,-0.705 0.39,0 0.705,0.316 0.705,0.705 V -0.705 C 0.705,-0.316 0.39,0 0,0" />
      </g>
      <g
         transform="translate(164.1113,464.0923)"
         id="g2078">
        <path
           inkscape:connector-curvature="0"
           id="path2080"
           style="fill:#100f0d;fill-opacity:1;fill-rule:nonzero;stroke:none"
           d="M 0,0 C 0,0.389 -0.315,0.705 -0.705,0.705 H -12.76 c -0.388,0 -0.704,-0.316 -0.704,-0.705 v -6.407 c 0,-0.389 0.316,-0.705 0.704,-0.705 0.39,0 0.705,0.316 0.705,0.705 v 5.702 h 11.35 C -0.315,-0.705 0,-0.389 0,0" />
      </g>
      <g
         transform="translate(184.6191,496.3555)"
         id="g2082">
        <path
           inkscape:connector-curvature="0"
           id="path2084"
           style="fill:#100f0d;fill-opacity:1;fill-rule:nonzero;stroke:none"
           d="M 0,0 C 0.161,1.409 0.314,2.74 0.158,3.923 0.108,4.309 -0.246,4.582 -0.633,4.53 -1.018,4.48 -1.29,4.126 -1.24,3.74 -1.106,2.728 -1.25,1.481 -1.401,0.159 l -0.026,-0.228 c -0.501,-4.401 0.6,-8.618 3.271,-12.534 0.212,-0.312 0.427,-0.638 0.649,-0.989 l -2.62,-1.152 c -0.345,-0.152 -0.51,-0.548 -0.373,-0.9 l 1.036,-2.674 0.026,-0.106 c 0.008,-0.243 -0.408,-1.008 -0.683,-1.514 -0.298,-0.55 -0.637,-1.172 -0.925,-1.879 -0.594,-1.454 -0.932,-3.018 -0.976,-4.523 -0.007,-0.186 -0.018,-0.342 -0.032,-0.472 -0.394,0.054 -0.796,0.081 -1.197,0.081 -2.142,0 -4.017,-0.744 -5.908,-1.573 l -0.14,-0.061 -0.064,-0.033 -0.134,-0.075 c -2.316,-1.313 -4.826,-2.222 -7.459,-2.701 -0.383,-0.069 -0.637,-0.436 -0.568,-0.819 0.062,-0.341 0.359,-0.579 0.693,-0.579 l 0.127,0.011 c 2.789,0.508 5.448,1.47 7.901,2.861 l 0.211,0.105 c 1.747,0.766 3.471,1.454 5.341,1.454 0.371,0 0.743,-0.027 1.107,-0.082 0.207,-0.031 0.396,-0.047 0.572,-0.047 h 0.001 l 0.123,0.004 c 0.283,0.017 0.529,0.202 0.623,0.469 0.084,0.239 0.189,0.678 0.211,1.414 0.041,1.339 0.342,2.733 0.873,4.033 0.26,0.635 0.578,1.221 0.859,1.739 0.481,0.885 0.896,1.649 0.85,2.288 -0.013,0.179 -0.051,0.343 -0.117,0.515 l -0.793,2.045 2.748,1.21 c 0.186,0.081 0.327,0.239 0.388,0.433 0.061,0.193 0.035,0.403 -0.07,0.577 l -0.129,0.209 c -0.345,0.559 -0.668,1.058 -0.987,1.525 -2.475,3.629 -3.496,7.525 -3.034,11.581 z" />
      </g>
      <g
         transform="translate(163.4072,513.8213)"
         id="g2086">
        <path
           inkscape:connector-curvature="0"
           id="path2088"
           style="fill:#100f0d;fill-opacity:1;fill-rule:nonzero;stroke:none"
           d="m 0,0 c -5.067,0 -9.957,-1.503 -14.142,-4.347 -0.322,-0.219 -0.405,-0.658 -0.185,-0.979 0.218,-0.322 0.656,-0.406 0.978,-0.187 3.95,2.684 8.566,4.103 13.349,4.103 2.901,0 5.745,-0.521 8.45,-1.549 l 1.516,-0.575 c 1.586,-0.641 2.926,-1.29 4.097,-1.985 2.73,-1.619 4.402,-3.402 5.263,-5.612 0.109,-0.279 0.375,-0.45 0.657,-0.45 l 0.255,0.049 c 0.364,0.141 0.543,0.55 0.402,0.912 -0.968,2.485 -2.884,4.55 -5.859,6.314 -1.232,0.731 -2.635,1.411 -4.302,2.084 L 8.951,-1.641 C 6.086,-0.552 3.073,0 0,0" />
      </g>
      <g
         transform="translate(146.5811,506.4272)"
         id="g2090">
        <path
           inkscape:connector-curvature="0"
           id="path2092"
           style="fill:#100f0d;fill-opacity:1;fill-rule:nonzero;stroke:none"
           d="m 0,0 c -0.275,0.275 -0.723,0.275 -0.998,0 -4.768,-4.768 -7.394,-11.098 -7.394,-17.823 v -39.664 c 0,-0.389 0.317,-0.704 0.705,-0.704 0.39,0 0.706,0.315 0.706,0.704 v 39.664 c 0,6.349 2.478,12.324 6.981,16.826 0.274,0.275 0.274,0.722 0,0.997" />
      </g>
      <g
         transform="translate(167.6963,466.8037)"
         id="g2094">
        <path
           inkscape:connector-curvature="0"
           id="path2096"
           style="fill:#100f0d;fill-opacity:1;fill-rule:nonzero;stroke:none"
           d="m 0,0 c 2.342,0.461 4.576,1.289 6.644,2.46 l 0.235,0.133 0.249,0.109 c 1.726,0.757 3.59,1.51 5.702,1.674 0.389,0.03 0.679,0.369 0.649,0.757 C 13.448,5.521 13.111,5.81 12.722,5.781 10.389,5.601 8.399,4.799 6.562,3.993 L 6.279,3.87 6.216,3.838 5.948,3.687 C 4.014,2.59 1.921,1.815 -0.272,1.383 -1.595,1.123 -2.945,0.991 -4.289,0.991 h -15.053 c -0.388,0 -0.705,-0.316 -0.705,-0.705 v -13.273 c 0,-0.389 0.317,-0.705 0.705,-0.705 0.39,0 0.705,0.316 0.705,0.705 v 12.568 h 14.348 c 1.435,0 2.878,0.141 4.289,0.419" />
      </g>
      <g
         transform="translate(180.7979,475.6709)"
         id="g2098">
        <path
           inkscape:connector-curvature="0"
           id="path2100"
           style="fill:#100f0d;fill-opacity:1;fill-rule:nonzero;stroke:none"
           d="m 0,0 c -0.146,-0.36 0.026,-0.772 0.387,-0.919 l 0.266,-0.052 c 0.277,0 0.541,0.165 0.652,0.439 0.322,0.789 0.698,1.481 1.001,2.037 0.073,0.135 0.163,0.3 0.246,0.458 0.094,0.18 0.107,0.393 0.033,0.583 L 1.048,6.512 3.214,7.464 c 0.185,0.081 0.326,0.238 0.388,0.43 0.062,0.192 0.038,0.401 -0.065,0.575 -2.295,3.872 -3.21,8.02 -2.72,12.327 l 0.026,0.23 c 0.14,1.22 0.272,2.373 0.165,3.192 -0.108,0.821 -0.288,1.549 -0.551,2.225 -0.462,1.185 -1.455,2.982 -4.73,4.897 -0.337,0.197 -0.769,0.083 -0.965,-0.253 -0.197,-0.336 -0.084,-0.767 0.252,-0.964 2.896,-1.693 3.744,-3.204 4.129,-4.192 0.221,-0.569 0.375,-1.189 0.467,-1.896 0.085,-0.648 -0.037,-1.717 -0.167,-2.85 L -0.583,20.956 C -1.08,16.591 -0.234,12.384 1.931,8.44 L -0.136,7.531 C -0.482,7.379 -0.646,6.983 -0.51,6.631 L 1.154,2.338 1.067,2.178 C 0.748,1.591 0.352,0.861 0,0" />
      </g>
      <g
         transform="translate(151.7334,505.8237)"
         id="g2102">
        <path
           inkscape:connector-curvature="0"
           id="path2104"
           style="fill:#100f0d;fill-opacity:1;fill-rule:nonzero;stroke:none"
           d="m 0,0 c 3.453,2.349 7.49,3.591 11.673,3.591 2.537,0 5.023,-0.456 7.388,-1.354 0.363,-0.139 0.77,0.045 0.908,0.408 0.138,0.364 -0.044,0.772 -0.408,0.91 C 17.036,4.514 14.382,5 11.673,5 7.206,5 2.895,3.674 -0.793,1.166 -2.079,0.29 -3.278,-0.723 -4.355,-1.846 c -3.993,-4.161 -6.191,-9.621 -6.191,-15.373 v -6.904 c 0,-0.389 0.316,-0.705 0.705,-0.705 0.389,0 0.704,0.316 0.704,0.705 v 6.904 c 0,5.386 2.059,10.5 5.798,14.397 C -2.329,-1.77 -1.205,-0.82 0,0" />
      </g>
      <g
         transform="translate(141.8916,478.439)"
         id="g2106">
        <path
           inkscape:connector-curvature="0"
           id="path2108"
           style="fill:#100f0d;fill-opacity:1;fill-rule:nonzero;stroke:none"
           d="m 0,0 c -0.389,0 -0.705,-0.316 -0.705,-0.705 v -27.922 c 0,-0.389 0.316,-0.705 0.705,-0.705 0.39,0 0.705,0.316 0.705,0.705 V -0.705 C 0.705,-0.316 0.39,0 0,0" />
      </g>
      <g
         transform="translate(163.4072,469.3818)"
         id="g2110">
        <path
           inkscape:connector-curvature="0"
           id="path2112"
           style="fill:#100f0d;fill-opacity:1;fill-rule:nonzero;stroke:none"
           d="M 0,0 C 0.389,0 0.704,0.316 0.704,0.705 0.704,1.094 0.389,1.41 0,1.41 h -15.521 c -0.389,0 -0.705,-0.316 -0.705,-0.705 0,-0.389 0.316,-0.705 0.705,-0.705 z" />
      </g>
      <g
         transform="translate(167.5166,469.8447)"
         id="g2114">
        <path
           inkscape:connector-curvature="0"
           id="path2116"
           style="fill:#100f0d;fill-opacity:1;fill-rule:nonzero;stroke:none"
           d="M 0,0 0.156,0.018 C 1.98,0.433 3.727,1.109 5.347,2.027 l 0.368,0.209 0.389,0.17 c 1.284,0.563 2.798,1.197 4.521,1.587 0.252,0.057 0.451,0.248 0.521,0.497 0.184,0.655 0.409,1.306 0.666,1.936 0.202,0.495 0.441,1.008 0.731,1.568 0.18,0.345 0.045,0.771 -0.302,0.95 C 11.896,9.123 11.471,8.988 11.292,8.642 10.981,8.044 10.725,7.494 10.507,6.959 10.281,6.408 10.08,5.842 9.906,5.271 8.313,4.87 6.869,4.281 5.537,3.698 L 5.115,3.512 5.052,3.48 4.651,3.254 C 3.15,2.404 1.533,1.777 -0.156,1.392 -0.535,1.306 -0.773,0.928 -0.687,0.548 -0.612,0.222 -0.322,0 0,0" />
      </g>
      <g
         transform="translate(180.2754,485.5273)"
         id="g2118">
        <path
           inkscape:connector-curvature="0"
           id="path2120"
           style="fill:#100f0d;fill-opacity:1;fill-rule:nonzero;stroke:none"
           d="m 0,0 c -1.53,3.591 -2.081,7.386 -1.638,11.279 l 0.027,0.234 c 0.13,1.136 0.225,2.039 0.17,2.459 -0.076,0.579 -0.199,1.078 -0.372,1.526 -0.466,1.196 -1.589,2.304 -3.431,3.387 -0.924,0.543 -2.041,1.082 -3.335,1.607 l -1.467,0.557 c -2.183,0.83 -4.479,1.251 -6.823,1.251 -3.846,0 -7.56,-1.137 -10.741,-3.288 -0.323,-0.218 -0.407,-0.656 -0.189,-0.979 0.219,-0.322 0.655,-0.407 0.979,-0.189 2.947,1.993 6.387,3.046 9.951,3.046 2.172,0 4.299,-0.39 6.322,-1.158 l 1.453,-0.552 c 1.216,-0.494 2.271,-1.002 3.136,-1.511 1.537,-0.903 2.489,-1.806 2.831,-2.683 0.133,-0.341 0.227,-0.732 0.288,-1.198 0.037,-0.282 -0.11,-1.566 -0.173,-2.118 L -3.039,11.438 C -3.483,7.532 -2.986,3.719 -1.562,0.093 l -1.882,-0.828 c -0.357,-0.157 -0.519,-0.573 -0.362,-0.929 0.116,-0.264 0.375,-0.422 0.646,-0.422 0.094,0 0.191,0.02 0.283,0.06 l 2.512,1.104 C -0.011,-0.766 0.151,-0.355 0,0" />
      </g>
      <g
         transform="translate(150.1797,501.5703)"
         id="g2122">
        <path
           inkscape:connector-curvature="0"
           id="path2124"
           style="fill:#100f0d;fill-opacity:1;fill-rule:nonzero;stroke:none"
           d="m 0,0 c -0.288,0.262 -0.734,0.241 -0.996,-0.048 -3.225,-3.546 -4.999,-8.134 -4.999,-12.918 v -37.442 c 0,-0.389 0.314,-0.704 0.705,-0.704 0.389,0 0.705,0.315 0.705,0.704 v 37.442 c 0,4.433 1.645,8.684 4.633,11.97 C 0.309,-0.708 0.288,-0.262 0,0" />
      </g>
      <g
         transform="translate(153.8799,472.3789)"
         id="g2126">
        <path
           inkscape:connector-curvature="0"
           id="path2128"
           style="fill:#100f0d;fill-opacity:1;fill-rule:nonzero;stroke:none"
           d="m 0,0 h 9.527 c 0.951,0 1.908,0.085 2.844,0.252 1.814,0.323 3.541,0.946 5.137,1.849 l 0.5,0.284 0.529,0.232 c 0.981,0.43 2.155,0.923 3.432,1.323 0.207,0.065 0.375,0.224 0.449,0.428 0.082,0.221 0.167,0.44 0.256,0.656 0.08,0.199 0.166,0.4 0.258,0.603 0.076,0.172 0.083,0.368 0.013,0.543 l -2.639,6.814 1.958,0.861 c 0.324,0.143 0.492,0.506 0.39,0.847 -0.97,3.248 -1.265,6.637 -0.875,10.073 l 0.03,0.25 c 0.074,0.655 0.152,1.371 0.164,1.714 l -0.008,0.131 c -0.044,0.279 -0.101,0.507 -0.177,0.701 -0.088,0.223 -0.543,1.038 -2.694,2.192 -0.68,0.364 -1.473,0.731 -2.373,1.098 l -1.436,0.545 c -0.195,0.074 -0.391,0.145 -0.589,0.211 -1.664,0.56 -3.403,0.844 -5.169,0.844 -3.247,0 -6.381,-0.96 -9.067,-2.775 -1.339,-0.905 -2.532,-2.002 -3.551,-3.26 -2.327,-2.875 -3.608,-6.494 -3.608,-10.191 V 0.705 C -6.699,0.316 -6.383,0 -5.994,0 c 0.39,0 0.705,0.316 0.705,0.705 v 15.52 c 0,3.375 1.17,6.679 3.295,9.304 0.93,1.15 2.021,2.152 3.244,2.979 2.451,1.657 5.313,2.533 8.277,2.533 1.614,0 3.202,-0.259 4.719,-0.77 0.182,-0.061 0.36,-0.125 0.538,-0.193 l 1.419,-0.539 c 0.841,-0.342 1.589,-0.688 2.225,-1.029 1.561,-0.837 1.992,-1.399 2.061,-1.501 0.019,-0.057 0.045,-0.152 0.072,-0.298 -0.021,-0.375 -0.117,-1.21 -0.155,-1.549 L 20.378,24.925 C 19.99,21.509 20.244,18.136 21.133,14.888 L 19.12,14.003 c -0.345,-0.151 -0.51,-0.548 -0.374,-0.9 l 2.78,-7.17 C 21.472,5.807 21.419,5.682 21.368,5.557 21.317,5.432 21.268,5.306 21.219,5.18 20.006,4.781 18.903,4.317 17.972,3.908 L 17.409,3.662 17.345,3.629 16.812,3.328 C 15.357,2.503 13.779,1.935 12.124,1.64 11.269,1.487 10.395,1.41 9.527,1.41 H 0 C -0.389,1.41 -0.705,1.094 -0.705,0.705 -0.705,0.316 -0.389,0 0,0" />
      </g>
      <g
         transform="translate(150.1787,476.0811)"
         id="g2130">
        <path
           inkscape:connector-curvature="0"
           id="path2132"
           style="fill:#100f0d;fill-opacity:1;fill-rule:nonzero;stroke:none"
           d="m 0,0 c 0,-0.389 0.315,-0.705 0.705,-0.705 h 12.523 c 0.389,0 0.705,0.316 0.705,0.705 0,0.389 -0.316,0.705 -0.705,0.705 H 1.41 V 5.62 C 1.41,6.009 1.094,6.325 0.705,6.325 0.315,6.325 0,6.009 0,5.62 Z" />
      </g>
      <g
         transform="translate(169.1982,487.9839)"
         id="g2134">
        <path
           inkscape:connector-curvature="0"
           id="path2136"
           style="fill:#100f0d;fill-opacity:1;fill-rule:nonzero;stroke:none"
           d="M 0,0 C -0.363,-0.141 -0.543,-0.549 -0.402,-0.912 L 2.534,-8.488 C 2.121,-8.66 1.751,-8.82 1.45,-8.952 L 0.747,-9.26 0.684,-9.292 0.018,-9.669 c -1.105,-0.626 -2.3,-1.067 -3.552,-1.311 -0.382,-0.075 -0.631,-0.445 -0.557,-0.827 0.066,-0.336 0.362,-0.57 0.691,-0.57 l 0.136,0.013 c 1.403,0.274 2.739,0.767 3.976,1.468 l 0.634,0.359 0.67,0.294 c 0.441,0.193 1.031,0.448 1.685,0.707 0.361,0.142 0.538,0.549 0.399,0.91 L 0.912,-0.403 C 0.771,-0.04 0.363,0.141 0,0" />
      </g>
      <g
         transform="translate(172.7725,498.2886)"
         id="g2138">
        <path
           inkscape:connector-curvature="0"
           id="path2140"
           style="fill:#100f0d;fill-opacity:1;fill-rule:nonzero;stroke:none"
           d="M 0,0 C 0.027,0.261 -0.091,0.515 -0.309,0.662 -0.495,0.787 -0.707,0.917 -0.939,1.049 -1.279,1.24 -1.709,1.122 -1.9,0.783 -2.093,0.444 -1.974,0.014 -1.635,-0.178 l 0.185,-0.107 c -0.023,-0.188 -0.041,-0.361 -0.041,-0.361 -0.354,-3.099 -0.229,-6.189 0.371,-9.184 0.066,-0.335 0.361,-0.567 0.69,-0.567 l 0.139,0.014 c 0.382,0.077 0.63,0.448 0.554,0.83 -0.572,2.851 -0.69,5.794 -0.354,8.748 0,0 0.073,0.649 0.091,0.805" />
      </g>
      <g
         transform="translate(156.4102,498.2812)"
         id="g2142">
        <path
           inkscape:connector-curvature="0"
           id="path2144"
           style="fill:#100f0d;fill-opacity:1;fill-rule:nonzero;stroke:none"
           d="m 0,0 c 0.136,0 0.273,0.039 0.394,0.121 1.955,1.322 4.238,2.021 6.602,2.021 1.098,0 2.185,-0.151 3.232,-0.449 0.106,-0.03 0.181,-0.05 0.244,-0.067 0.131,-0.034 0.179,-0.047 0.382,-0.124 0.364,-0.139 0.771,0.044 0.909,0.408 0.139,0.364 -0.044,0.771 -0.409,0.91 -0.259,0.098 -0.352,0.124 -0.521,0.169 -0.056,0.015 -0.124,0.033 -0.219,0.06 C 9.442,3.382 8.226,3.552 6.996,3.552 4.351,3.552 1.794,2.769 -0.396,1.289 -0.718,1.071 -0.803,0.633 -0.585,0.31 -0.448,0.109 -0.226,0 0,0" />
      </g>
      <g
         transform="translate(153.8379,496.7061)"
         id="g2146">
        <path
           inkscape:connector-curvature="0"
           id="path2148"
           style="fill:#100f0d;fill-opacity:1;fill-rule:nonzero;stroke:none"
           d="M 0,0 C -0.311,0.235 -0.753,0.174 -0.987,-0.137 -2.735,-2.449 -3.66,-5.203 -3.66,-8.101 v -2.412 c 0,-0.389 0.316,-0.705 0.705,-0.705 0.39,0 0.705,0.316 0.705,0.705 v 2.412 c 0,2.589 0.825,5.049 2.387,7.114 C 0.372,-0.677 0.31,-0.235 0,0" />
      </g>
      <g
         transform="translate(153.1758,479.0781)"
         id="g2150">
        <path
           inkscape:connector-curvature="0"
           id="path2152"
           style="fill:#100f0d;fill-opacity:1;fill-rule:nonzero;stroke:none"
           d="m 0,0 c 0,-0.389 0.315,-0.705 0.705,-0.705 h 9.525 c 0.876,0 1.751,0.113 2.602,0.337 0.849,0.223 1.665,0.555 2.426,0.986 l 0.715,0.405 c 0.304,0.173 0.436,0.542 0.309,0.868 L 14.661,6.077 C 14.521,6.44 14.111,6.62 13.749,6.479 13.386,6.339 13.206,5.93 13.347,5.567 L 14.749,1.95 14.563,1.845 C 13.907,1.474 13.205,1.188 12.473,0.995 11.741,0.803 10.985,0.705 10.23,0.705 H 1.409 v 8.821 c 0,2.931 1.455,5.665 3.894,7.314 1.46,0.986 3.164,1.508 4.927,1.508 0.537,0 1.074,-0.048 1.595,-0.144 0.522,-0.095 1.037,-0.24 1.534,-0.428 l 1.349,-0.512 c 0.092,-0.038 0.181,-0.075 0.267,-0.111 -0.008,-0.125 -0.015,-0.249 -0.021,-0.374 -0.093,-1.85 -0.028,-3.711 0.191,-5.531 0.046,-0.386 0.397,-0.661 0.784,-0.615 0.386,0.046 0.663,0.397 0.616,0.784 -0.21,1.741 -0.272,3.522 -0.184,5.292 0.015,0.279 0.032,0.558 0.053,0.837 0.023,0.296 -0.143,0.574 -0.412,0.696 -0.227,0.102 -0.479,0.211 -0.777,0.333 l -1.365,0.519 c -0.576,0.219 -1.175,0.386 -1.781,0.497 -0.605,0.111 -1.227,0.167 -1.849,0.167 -2.046,0 -4.023,-0.605 -5.716,-1.75 C 1.687,16.096 0,12.926 0,9.526 Z" />
      </g>
      <g
         transform="translate(200.5947,559.585)"
         id="g2154">
        <path
           inkscape:connector-curvature="0"
           id="path2156"
           style="fill:none;stroke:#100f0d;stroke-width:2.83500004;stroke-linecap:butt;stroke-linejoin:miter;stroke-miterlimit:10;stroke-dasharray:none;stroke-opacity:1"
           d="M 0,0 H 80.7" />
      </g>
      <g
         transform="translate(185.21,630.3975)"
         id="g2158">
        <path
           inkscape:connector-curvature="0"
           id="path2160"
           style="fill:#100f0d;fill-opacity:1;fill-rule:nonzero;stroke:none"
           d="m 0,0 c 1.933,0 3.2,1.691 3.2,3.715 0,1.962 -1.207,3.623 -3.2,3.623 -1.541,0.031 -3.051,0 -4.59,0 V 0 Z m -9.029,-9.844 v 21.138 c 3.019,0.03 6.008,0 9.029,0 4.921,0 7.519,-3.714 7.519,-7.7 C 7.519,-0.332 4.83,-3.864 0,-3.864 h -4.5 v -5.98 z" />
      </g>
      <g
         transform="translate(204.958,631.2432)"
         id="g2162">
        <path
           inkscape:connector-curvature="0"
           id="path2164"
           style="fill:#100f0d;fill-opacity:1;fill-rule:nonzero;stroke:none"
           d="m 0,0 c 1.902,0 3.141,1.479 3.109,3.292 0,1.781 -1.177,3.2 -3.109,3.2 H -4.529 V 0 Z m 8.485,-10.055 v -0.634 H 3.653 l -4.348,6.975 h -3.774 v -6.975 h -4.529 v 21.137 c 3.019,0 6.008,0.03 9.027,0 4.832,0 7.46,-3.503 7.46,-7.247 0,-2.687 -1.359,-5.043 -3.775,-6.221 z" />
      </g>
      <g
         transform="translate(226.2158,624.1172)"
         id="g2166">
        <path
           inkscape:connector-curvature="0"
           id="path2168"
           style="fill:#100f0d;fill-opacity:1;fill-rule:nonzero;stroke:none"
           d="M 0,0 V -3.594 H -10.508 V 0 h 2.989 v 14.042 h -2.748 v 3.502 H -0.241 V 14.042 H -2.989 V 0 Z" />
      </g>
      <g
         transform="translate(243.7178,641.6611)"
         id="g2170">
        <path
           inkscape:connector-curvature="0"
           id="path2172"
           style="fill:#100f0d;fill-opacity:1;fill-rule:nonzero;stroke:none"
           d="M 0,0 H 4.885 V -0.665 L -4.269,-21.188 H -6.174 L -15.42,-0.665 V 0 h 4.884 l 5.324,-12.443 z" />
      </g>
      <g
         transform="translate(250.3486,620.4727)"
         id="g2174">
        <path
           inkscape:connector-curvature="0"
           id="path2176"
           style="fill:#100f0d;fill-opacity:1;fill-rule:nonzero;stroke:none"
           d="M 0,0 H -4.884 V 0.664 L 4.27,21.188 H 6.174 L 15.42,0.664 V 0 H 10.535 L 5.213,12.443 Z" />
      </g>
      <g
         transform="translate(276.7393,641.8721)"
         id="g2178">
        <path
           inkscape:connector-curvature="0"
           id="path2180"
           style="fill:#100f0d;fill-opacity:1;fill-rule:nonzero;stroke:none"
           d="M 0,0 C 4.258,0 8.787,-2.295 9.754,-7.519 H 5.375 C 4.438,-5.133 2.536,-4.076 0,-4.076 c -3.744,0 -6.25,-2.718 -6.25,-6.734 0,-3.624 2.445,-6.643 6.221,-6.643 2.627,0 4.769,1.238 5.495,3.805 H 9.813 C 8.908,-19.235 4.408,-21.56 0,-21.56 c -5.557,0 -10.811,3.745 -10.811,10.75 0,7.036 5.254,10.901 10.811,10.81" />
      </g>
      <g
         transform="translate(296.7588,633.1152)"
         id="g2182">
        <path
           inkscape:connector-curvature="0"
           id="path2184"
           style="fill:#100f0d;fill-opacity:1;fill-rule:nonzero;stroke:none"
           d="M 0,0 2.084,4.197 4.621,8.545 H 9.422 V 7.881 L 2.174,-4.137 v -8.455 h -4.529 v 8.455 L -9.632,7.881 V 8.545 H -4.77 L -2.143,4.047 -0.15,0 Z" />
      </g>
      <g
         transform="translate(200.627,605.1929)"
         id="g2186">
        <path
           inkscape:connector-curvature="0"
           id="path2188"
           style="fill:#100f0d;fill-opacity:1;fill-rule:nonzero;stroke:none"
           d="m 0,0 c 1.451,0 2.771,0.959 2.771,2.997 0,1.984 -1.305,2.97 -2.758,2.97 -1.464,0 -2.77,-0.998 -2.77,-2.97 C -2.757,0.959 -1.491,0 0,0 m -0.027,-1.824 c -2.491,0 -4.742,1.678 -4.742,4.821 0,3.144 2.305,4.808 4.782,4.808 2.437,0 4.742,-1.678 4.742,-4.808 0,-2.837 -1.958,-4.821 -4.782,-4.821" />
      </g>
      <g
         transform="translate(213.7324,608.856)"
         id="g2190">
        <path
           inkscape:connector-curvature="0"
           id="path2192"
           style="fill:#100f0d;fill-opacity:1;fill-rule:nonzero;stroke:none"
           d="m 0,0 v -5.327 h -1.984 v 9.363 h 0.627 l 5.233,-5.328 v 5.288 h 1.999 v -9.35 H 5.274 Z" />
      </g>
      <g
         transform="translate(232.2061,611.1064)"
         id="g2194">
        <path
           inkscape:connector-curvature="0"
           id="path2196"
           style="fill:#100f0d;fill-opacity:1;fill-rule:nonzero;stroke:none"
           d="m 0,0 h -3.703 v -1.891 h 3.464 v -1.745 h -3.464 v -2.131 h 3.81 v -1.811 h -5.82 V 1.746 H 0 Z" />
      </g>
      <g
         transform="translate(239.6396,606.2852)"
         id="g2198">
        <path
           inkscape:connector-curvature="0"
           id="path2200"
           style="fill:#100f0d;fill-opacity:1;fill-rule:nonzero;stroke:none"
           d="m 0,0 c 0.039,-0.853 0.972,-1.212 1.878,-1.212 0.825,0 1.784,0.2 1.784,1.172 0,1.065 -1.145,1.159 -2.038,1.226 -1.691,0.146 -3.396,0.719 -3.396,2.65 0,2.064 1.691,2.93 3.543,2.93 1.745,0 3.556,-0.732 3.556,-2.824 H 3.463 C 3.355,4.701 2.569,5.021 1.771,5.021 0.972,5.021 0.187,4.595 0.187,3.876 0.187,3.05 0.998,2.864 1.97,2.757 3.941,2.584 5.633,2.145 5.633,-0.04 c 0,-2.197 -1.904,-2.877 -3.742,-2.916 -1.866,0 -3.796,0.919 -3.796,2.956 z" />
      </g>
      <g
         transform="translate(250.707,611.1201)"
         id="g2202">
        <path
           inkscape:connector-curvature="0"
           id="path2204"
           style="fill:#100f0d;fill-opacity:1;fill-rule:nonzero;stroke:none"
           d="M 0,0 V 1.731 H 6.899 V 0 H 4.422 V -7.592 H 2.491 V 0 Z" />
      </g>
      <g
         transform="translate(267.7021,605.1929)"
         id="g2206">
        <path
           inkscape:connector-curvature="0"
           id="path2208"
           style="fill:#100f0d;fill-opacity:1;fill-rule:nonzero;stroke:none"
           d="m 0,0 c 1.452,0 2.771,0.959 2.771,2.997 0,1.984 -1.305,2.97 -2.758,2.97 -1.465,0 -2.77,-0.998 -2.77,-2.97 C -2.757,0.959 -1.492,0 0,0 m -0.026,-1.824 c -2.491,0 -4.742,1.678 -4.742,4.821 0,3.144 2.305,4.808 4.781,4.808 2.438,0 4.741,-1.678 4.741,-4.808 0,-2.837 -1.957,-4.821 -4.78,-4.821" />
      </g>
      <g
         transform="translate(282.8193,607.8833)"
         id="g2210">
        <path
           inkscape:connector-curvature="0"
           id="path2212"
           style="fill:#100f0d;fill-opacity:1;fill-rule:nonzero;stroke:none"
           d="m 0,0 c 0.853,0 1.411,0.747 1.411,1.639 0,0.865 -0.532,1.598 -1.411,1.598 -0.68,0.013 -1.346,0 -2.024,0 V 0 Z m -3.982,-4.342 v 9.323 c 1.332,0.014 2.65,0 3.982,0 2.17,0 3.316,-1.638 3.316,-3.396 0,-1.731 -1.185,-3.29 -3.316,-3.29 h -1.984 v -2.637 z" />
      </g>
      <g
         transform="translate(220.0068,491.0713)"
         id="g2214">
        <path
           inkscape:connector-curvature="0"
           id="path2216"
           style="fill:#100f0d;fill-opacity:1;fill-rule:nonzero;stroke:none"
           d="m 0,0 c 2.023,0 3.351,1.771 3.351,3.889 0,2.055 -1.264,3.793 -3.351,3.793 -1.613,0.032 -3.194,0 -4.806,0 V 0 Z m -9.453,-10.306 v 22.13 c 3.161,0.031 6.291,0 9.453,0 5.151,0 7.871,-3.888 7.871,-8.062 0,-4.11 -2.814,-7.807 -7.871,-7.807 h -4.711 v -6.261 z" />
      </g>
      <g
         transform="translate(240.6816,491.9565)"
         id="g2218">
        <path
           inkscape:connector-curvature="0"
           id="path2220"
           style="fill:#100f0d;fill-opacity:1;fill-rule:nonzero;stroke:none"
           d="M 0,0 C 1.991,0 3.288,1.549 3.255,3.447 3.255,5.311 2.022,6.797 0,6.797 H -4.742 V 0 Z M 8.884,-10.526 V -11.19 H 3.825 l -4.553,7.301 h -3.951 v -7.301 h -4.742 v 22.128 c 3.162,0 6.29,0.032 9.451,0 5.059,0 7.811,-3.667 7.811,-7.586 0,-2.814 -1.424,-5.28 -3.953,-6.513 z" />
      </g>
      <g
         transform="translate(262.9365,484.4961)"
         id="g2222">
        <path
           inkscape:connector-curvature="0"
           id="path2224"
           style="fill:#100f0d;fill-opacity:1;fill-rule:nonzero;stroke:none"
           d="M 0,0 V -3.762 H -11 V 0 h 3.129 v 14.701 h -2.877 v 3.667 H -0.252 V 14.701 H -3.129 V 0 Z" />
      </g>
      <g
         transform="translate(281.2607,502.8638)"
         id="g2226">
        <path
           inkscape:connector-curvature="0"
           id="path2228"
           style="fill:#100f0d;fill-opacity:1;fill-rule:nonzero;stroke:none"
           d="M 0,0 H 5.113 V -0.696 L -4.47,-22.183 h -1.994 l -9.681,21.487 V 0 h 5.114 l 5.574,-13.027 z" />
      </g>
      <g
         transform="translate(288.2021,480.6807)"
         id="g2230">
        <path
           inkscape:connector-curvature="0"
           id="path2232"
           style="fill:#100f0d;fill-opacity:1;fill-rule:nonzero;stroke:none"
           d="M 0,0 H -5.113 V 0.695 L 4.47,22.183 H 6.464 L 16.144,0.695 V 0 H 11.029 L 5.458,13.027 Z" />
      </g>
      <g
         transform="translate(315.8311,503.0845)"
         id="g2234">
        <path
           inkscape:connector-curvature="0"
           id="path2236"
           style="fill:#100f0d;fill-opacity:1;fill-rule:nonzero;stroke:none"
           d="M 0,0 C 4.458,0 9.199,-2.403 10.212,-7.872 H 5.627 C 4.646,-5.375 2.655,-4.268 0,-4.268 c -3.92,0 -6.543,-2.845 -6.543,-7.049 0,-3.794 2.56,-6.955 6.513,-6.955 2.75,0 4.993,1.295 5.753,3.983 h 4.551 C 9.326,-20.138 4.615,-22.571 0,-22.571 c -5.817,0 -11.317,3.92 -11.317,11.254 0,7.365 5.5,11.412 11.317,11.317" />
      </g>
      <g
         transform="translate(336.79,493.9165)"
         id="g2238">
        <path
           inkscape:connector-curvature="0"
           id="path2240"
           style="fill:#100f0d;fill-opacity:1;fill-rule:nonzero;stroke:none"
           d="M 0,0 2.182,4.395 4.838,8.947 H 9.864 V 8.251 L 2.276,-4.331 v -8.852 h -4.742 v 8.852 l -7.618,12.582 v 0.696 h 5.091 L -2.243,4.237 -0.157,0 Z" />
      </g>
      <g
         transform="translate(236.1475,464.6841)"
         id="g2242">
        <path
           inkscape:connector-curvature="0"
           id="path2244"
           style="fill:#100f0d;fill-opacity:1;fill-rule:nonzero;stroke:none"
           d="m 0,0 c 1.52,0 2.9,1.004 2.9,3.138 0,2.076 -1.366,3.109 -2.887,3.109 -1.533,0 -2.9,-1.045 -2.9,-3.109 C -2.887,1.004 -1.562,0 0,0 m -0.029,-1.91 c -2.607,0 -4.963,1.757 -4.963,5.048 0,3.291 2.412,5.033 5.005,5.033 2.551,0 4.965,-1.756 4.965,-5.033 0,-2.971 -2.05,-5.048 -5.007,-5.048" />
      </g>
      <g
         transform="translate(249.8682,468.519)"
         id="g2246">
        <path
           inkscape:connector-curvature="0"
           id="path2248"
           style="fill:#100f0d;fill-opacity:1;fill-rule:nonzero;stroke:none"
           d="m 0,0 v -5.577 h -2.078 v 9.802 h 0.656 l 5.48,-5.579 V 4.183 H 6.15 V -5.605 H 5.521 Z" />
      </g>
      <g
         transform="translate(269.208,470.875)"
         id="g2250">
        <path
           inkscape:connector-curvature="0"
           id="path2252"
           style="fill:#100f0d;fill-opacity:1;fill-rule:nonzero;stroke:none"
           d="M 0,0 H -3.877 V -1.98 H -0.25 V -3.806 H -3.877 V -6.038 H 0.112 V -7.934 H -5.98 V 1.828 H 0 Z" />
      </g>
      <g
         transform="translate(276.9912,465.8276)"
         id="g2254">
        <path
           inkscape:connector-curvature="0"
           id="path2256"
           style="fill:#100f0d;fill-opacity:1;fill-rule:nonzero;stroke:none"
           d="m 0,0 c 0.04,-0.893 1.017,-1.27 1.966,-1.27 0.863,0 1.868,0.21 1.868,1.228 0,1.115 -1.2,1.214 -2.135,1.283 -1.77,0.154 -3.555,0.753 -3.555,2.775 0,2.161 1.771,3.067 3.71,3.067 1.826,0 3.722,-0.766 3.722,-2.956 H 3.625 c -0.112,0.795 -0.936,1.13 -1.771,1.13 -0.837,0 -1.659,-0.446 -1.659,-1.199 0,-0.865 0.85,-1.059 1.867,-1.171 2.064,-0.182 3.834,-0.642 3.834,-2.929 0,-2.3 -1.992,-3.013 -3.917,-3.053 -1.953,0 -3.974,0.962 -3.974,3.095 z" />
      </g>
      <g
         transform="translate(288.5771,470.8892)"
         id="g2258">
        <path
           inkscape:connector-curvature="0"
           id="path2260"
           style="fill:#100f0d;fill-opacity:1;fill-rule:nonzero;stroke:none"
           d="M 0,0 V 1.813 H 7.224 V 0 H 4.63 V -7.948 H 2.608 V 0 Z" />
      </g>
      <g
         transform="translate(306.3701,464.6841)"
         id="g2262">
        <path
           inkscape:connector-curvature="0"
           id="path2264"
           style="fill:#100f0d;fill-opacity:1;fill-rule:nonzero;stroke:none"
           d="M 0,0 C 1.521,0 2.9,1.004 2.9,3.138 2.9,5.214 1.534,6.247 0.014,6.247 -1.521,6.247 -2.887,5.202 -2.887,3.138 -2.887,1.004 -1.562,0 0,0 m -0.027,-1.91 c -2.608,0 -4.964,1.757 -4.964,5.048 0,3.291 2.413,5.033 5.005,5.033 2.552,0 4.963,-1.756 4.963,-5.033 0,-2.971 -2.049,-5.048 -5.004,-5.048" />
      </g>
      <g
         transform="translate(322.1963,467.5005)"
         id="g2266">
        <path
           inkscape:connector-curvature="0"
           id="path2268"
           style="fill:#100f0d;fill-opacity:1;fill-rule:nonzero;stroke:none"
           d="m 0,0 c 0.893,0 1.478,0.782 1.478,1.716 0,0.906 -0.557,1.673 -1.478,1.673 -0.711,0.014 -1.408,0 -2.119,0 V 0 Z m -4.169,-4.546 v 9.761 c 1.395,0.014 2.774,0 4.169,0 C 2.272,5.215 3.473,3.5 3.473,1.66 3.473,-0.153 2.231,-1.784 0,-1.784 h -2.077 v -2.762 z" />
      </g>
    </g>
  </g>
</svg>
