<?xml version="1.0" encoding="UTF-8" standalone="no"?>
<!-- Created with Inkscape (http://www.inkscape.org/) -->

<svg
   xmlns:dc="http://purl.org/dc/elements/1.1/"
   xmlns:cc="http://creativecommons.org/ns#"
   xmlns:rdf="http://www.w3.org/1999/02/22-rdf-syntax-ns#"
   xmlns:svg="http://www.w3.org/2000/svg"
   xmlns="http://www.w3.org/2000/svg"
   xmlns:xlink="http://www.w3.org/1999/xlink"
   xmlns:sodipodi="http://sodipodi.sourceforge.net/DTD/sodipodi-0.dtd"
   xmlns:inkscape="http://www.inkscape.org/namespaces/inkscape"
   width="100.89144mm"
   height="32.88559mm"
   viewBox="0 0 100.89144 32.88559"
   version="1.1"
   id="svg11106"
   inkscape:version="0.92.4 (5da689c313, 2019-01-14)"
   sodipodi:docname="purple logo horizontal.svg">
  <defs
     id="defs11100">
    <clipPath
       id="clipPath9036"
       clipPathUnits="userSpaceOnUse">
      <path
         inkscape:connector-curvature="0"
         id="path9034"
         d="M 0,841.89 H 481.89 V 0 H 0 Z" />
    </clipPath>
    <linearGradient
       id="linearGradient8574"
       spreadMethod="pad"
       gradientTransform="matrix(-53.736515,-84.579361,84.579361,-53.736515,154.05762,641)"
       gradientUnits="userSpaceOnUse"
       y2="0"
       x2="1"
       y1="0"
       x1="0">
      <stop
         id="stop8570"
         offset="0"
         style="stop-opacity:1;stop-color:#502891" />
      <stop
         id="stop8572"
         offset="1"
         style="stop-opacity:1;stop-color:#a91b60" />
    </linearGradient>
    <linearGradient
       id="linearGradient8554"
       spreadMethod="pad"
       gradientTransform="matrix(-53.736515,-84.579361,84.579361,-53.736515,143.52637,647.75)"
       gradientUnits="userSpaceOnUse"
       y2="0"
       x2="1"
       y1="0"
       x1="0">
      <stop
         id="stop8550"
         offset="0"
         style="stop-opacity:1;stop-color:#502891" />
      <stop
         id="stop8552"
         offset="1"
         style="stop-opacity:1;stop-color:#a91b60" />
    </linearGradient>
    <linearGradient
       id="linearGradient8534"
       spreadMethod="pad"
       gradientTransform="matrix(-53.736515,-84.579361,84.579361,-53.736515,147.58887,645.25)"
       gradientUnits="userSpaceOnUse"
       y2="0"
       x2="1"
       y1="0"
       x1="0">
      <stop
         id="stop8530"
         offset="0"
         style="stop-opacity:1;stop-color:#502891" />
      <stop
         id="stop8532"
         offset="1"
         style="stop-opacity:1;stop-color:#a91b60" />
    </linearGradient>
    <linearGradient
       id="linearGradient8514"
       spreadMethod="pad"
       gradientTransform="matrix(-53.736515,-84.579361,84.579361,-53.736515,161.08887,636.625)"
       gradientUnits="userSpaceOnUse"
       y2="0"
       x2="1"
       y1="0"
       x1="0">
      <stop
         id="stop8510"
         offset="0"
         style="stop-opacity:1;stop-color:#502891" />
      <stop
         id="stop8512"
         offset="1"
         style="stop-opacity:1;stop-color:#a91b60" />
    </linearGradient>
    <linearGradient
       id="linearGradient8494"
       spreadMethod="pad"
       gradientTransform="matrix(-53.736515,-84.579361,84.579361,-53.736515,165.71387,633.75)"
       gradientUnits="userSpaceOnUse"
       y2="0"
       x2="1"
       y1="0"
       x1="0">
      <stop
         id="stop8490"
         offset="0"
         style="stop-opacity:1;stop-color:#502891" />
      <stop
         id="stop8492"
         offset="1"
         style="stop-opacity:1;stop-color:#a91b60" />
    </linearGradient>
    <linearGradient
       id="linearGradient8474"
       spreadMethod="pad"
       gradientTransform="matrix(-53.736515,-84.579361,84.579361,-53.736515,155.90137,639.875)"
       gradientUnits="userSpaceOnUse"
       y2="0"
       x2="1"
       y1="0"
       x1="0">
      <stop
         id="stop8470"
         offset="0"
         style="stop-opacity:1;stop-color:#502891" />
      <stop
         id="stop8472"
         offset="1"
         style="stop-opacity:1;stop-color:#a91b60" />
    </linearGradient>
    <linearGradient
       inkscape:collect="always"
       xlink:href="#linearGradient8414"
       id="linearGradient9500"
       gradientUnits="userSpaceOnUse"
       gradientTransform="matrix(-53.736515,-84.579361,84.579361,-53.736515,154.55762,640.75)"
       x1="0"
       y1="0"
       x2="1"
       y2="0"
       spreadMethod="pad" />
    <linearGradient
       id="linearGradient8414"
       spreadMethod="pad"
       gradientTransform="matrix(-53.736515,-84.579361,84.579361,-53.736515,154.55762,640.75)"
       gradientUnits="userSpaceOnUse"
       y2="0"
       x2="1"
       y1="0"
       x1="0">
      <stop
         id="stop8410"
         offset="0"
         style="stop-opacity:1;stop-color:#502891" />
      <stop
         id="stop8412"
         offset="1"
         style="stop-opacity:1;stop-color:#a91b60" />
    </linearGradient>
    <linearGradient
       id="linearGradient8434"
       spreadMethod="pad"
       gradientTransform="matrix(-53.736515,-84.579361,84.579361,-53.736515,148.18262,644.875)"
       gradientUnits="userSpaceOnUse"
       y2="0"
       x2="1"
       y1="0"
       x1="0">
      <stop
         id="stop8430"
         offset="0"
         style="stop-opacity:1;stop-color:#502891" />
      <stop
         id="stop8432"
         offset="1"
         style="stop-opacity:1;stop-color:#a91b60" />
    </linearGradient>
    <linearGradient
       id="linearGradient8394"
       spreadMethod="pad"
       gradientTransform="matrix(-53.736515,-84.579361,84.579361,-53.736515,174.40137,628.125)"
       gradientUnits="userSpaceOnUse"
       y2="0"
       x2="1"
       y1="0"
       x1="0">
      <stop
         id="stop8390"
         offset="0"
         style="stop-opacity:1;stop-color:#502891" />
      <stop
         id="stop8392"
         offset="1"
         style="stop-opacity:1;stop-color:#a91b60" />
    </linearGradient>
    <linearGradient
       id="linearGradient8374"
       spreadMethod="pad"
       gradientTransform="matrix(-53.736515,-84.579361,84.579361,-53.736515,159.77637,637.375)"
       gradientUnits="userSpaceOnUse"
       y2="0"
       x2="1"
       y1="0"
       x1="0">
      <stop
         id="stop8370"
         offset="0"
         style="stop-opacity:1;stop-color:#502891" />
      <stop
         id="stop8372"
         offset="1"
         style="stop-opacity:1;stop-color:#a91b60" />
    </linearGradient>
    <linearGradient
       id="linearGradient8354"
       spreadMethod="pad"
       gradientTransform="matrix(-53.736515,-84.579361,84.579361,-53.736515,150.49512,643.25)"
       gradientUnits="userSpaceOnUse"
       y2="0"
       x2="1"
       y1="0"
       x1="0">
      <stop
         id="stop8350"
         offset="0"
         style="stop-opacity:1;stop-color:#502891" />
      <stop
         id="stop8352"
         offset="1"
         style="stop-opacity:1;stop-color:#a91b60" />
    </linearGradient>
    <linearGradient
       id="linearGradient8334"
       spreadMethod="pad"
       gradientTransform="matrix(-53.736515,-84.579361,84.579361,-53.736515,144.83887,646.875)"
       gradientUnits="userSpaceOnUse"
       y2="0"
       x2="1"
       y1="0"
       x1="0">
      <stop
         id="stop8330"
         offset="0"
         style="stop-opacity:1;stop-color:#502891" />
      <stop
         id="stop8332"
         offset="1"
         style="stop-opacity:1;stop-color:#a91b60" />
    </linearGradient>
    <linearGradient
       id="linearGradient8314"
       spreadMethod="pad"
       gradientTransform="matrix(-53.736515,-84.579361,84.579361,-53.736515,170.62012,630.625)"
       gradientUnits="userSpaceOnUse"
       y2="0"
       x2="1"
       y1="0"
       x1="0">
      <stop
         id="stop8310"
         offset="0"
         style="stop-opacity:1;stop-color:#502891" />
      <stop
         id="stop8312"
         offset="1"
         style="stop-opacity:1;stop-color:#a91b60" />
    </linearGradient>
    <linearGradient
       id="linearGradient8294"
       spreadMethod="pad"
       gradientTransform="matrix(-53.736515,-84.579361,84.579361,-53.736515,172.77637,629.25)"
       gradientUnits="userSpaceOnUse"
       y2="0"
       x2="1"
       y1="0"
       x1="0">
      <stop
         id="stop8290"
         offset="0"
         style="stop-opacity:1;stop-color:#502891" />
      <stop
         id="stop8292"
         offset="1"
         style="stop-opacity:1;stop-color:#a91b60" />
    </linearGradient>
    <linearGradient
       id="linearGradient8274"
       spreadMethod="pad"
       gradientTransform="matrix(-53.736511,-84.579353,84.579353,-53.736511,142.74512,648.375)"
       gradientUnits="userSpaceOnUse"
       y2="0"
       x2="1"
       y1="0"
       x1="0">
      <stop
         id="stop8270"
         offset="0"
         style="stop-opacity:1;stop-color:#502891" />
      <stop
         id="stop8272"
         offset="1"
         style="stop-opacity:1;stop-color:#a91b60" />
    </linearGradient>
    <linearGradient
       id="linearGradient8254"
       spreadMethod="pad"
       gradientTransform="matrix(-53.736511,-84.579353,84.579353,-53.736511,147.12012,645.5)"
       gradientUnits="userSpaceOnUse"
       y2="0"
       x2="1"
       y1="0"
       x1="0">
      <stop
         id="stop8250"
         offset="0"
         style="stop-opacity:1;stop-color:#502891" />
      <stop
         id="stop8252"
         offset="1"
         style="stop-opacity:1;stop-color:#a91b60" />
    </linearGradient>
    <linearGradient
       id="linearGradient8234"
       spreadMethod="pad"
       gradientTransform="matrix(-53.736515,-84.579361,84.579361,-53.736515,173.83887,628.5)"
       gradientUnits="userSpaceOnUse"
       y2="0"
       x2="1"
       y1="0"
       x1="0">
      <stop
         id="stop8230"
         offset="0"
         style="stop-opacity:1;stop-color:#502891" />
      <stop
         id="stop8232"
         offset="1"
         style="stop-opacity:1;stop-color:#a91b60" />
    </linearGradient>
    <linearGradient
       id="linearGradient8214"
       spreadMethod="pad"
       gradientTransform="matrix(-53.736515,-84.579361,84.579361,-53.736515,167.18262,632.75)"
       gradientUnits="userSpaceOnUse"
       y2="0"
       x2="1"
       y1="0"
       x1="0">
      <stop
         id="stop8210"
         offset="0"
         style="stop-opacity:1;stop-color:#502891" />
      <stop
         id="stop8212"
         offset="1"
         style="stop-opacity:1;stop-color:#a91b60" />
    </linearGradient>
    <linearGradient
       id="linearGradient8194"
       spreadMethod="pad"
       gradientTransform="matrix(-53.736515,-84.579361,84.579361,-53.736515,145.90137,646.25)"
       gradientUnits="userSpaceOnUse"
       y2="0"
       x2="1"
       y1="0"
       x1="0">
      <stop
         id="stop8190"
         offset="0"
         style="stop-opacity:1;stop-color:#502891" />
      <stop
         id="stop8192"
         offset="1"
         style="stop-opacity:1;stop-color:#a91b60" />
    </linearGradient>
    <linearGradient
       id="linearGradient8174"
       spreadMethod="pad"
       gradientTransform="matrix(-53.736515,-84.579361,84.579361,-53.736515,141.90137,648.75)"
       gradientUnits="userSpaceOnUse"
       y2="0"
       x2="1"
       y1="0"
       x1="0">
      <stop
         id="stop8170"
         offset="0"
         style="stop-opacity:1;stop-color:#502891" />
      <stop
         id="stop8172"
         offset="1"
         style="stop-opacity:1;stop-color:#a91b60" />
    </linearGradient>
    <linearGradient
       id="linearGradient8154"
       spreadMethod="pad"
       gradientTransform="matrix(-53.736515,-84.579361,84.579361,-53.736515,166.90137,633)"
       gradientUnits="userSpaceOnUse"
       y2="0"
       x2="1"
       y1="0"
       x1="0">
      <stop
         id="stop8150"
         offset="0"
         style="stop-opacity:1;stop-color:#502891" />
      <stop
         id="stop8152"
         offset="1"
         style="stop-opacity:1;stop-color:#a91b60" />
    </linearGradient>
    <linearGradient
       inkscape:collect="always"
       xlink:href="#linearGradient8414"
       id="linearGradient11528"
       gradientUnits="userSpaceOnUse"
       gradientTransform="matrix(-53.736515,-84.579361,84.579361,-53.736515,154.55762,640.75)"
       x1="0"
       y1="0"
       x2="1"
       y2="0"
       spreadMethod="pad" />
  </defs>
  <sodipodi:namedview
     id="base"
     pagecolor="#ffffff"
     bordercolor="#666666"
     borderopacity="1.0"
     inkscape:pageopacity="0.0"
     inkscape:pageshadow="2"
     inkscape:zoom="0.35"
     inkscape:cx="95.607704"
     inkscape:cy="250.00627"
     inkscape:document-units="mm"
     inkscape:current-layer="layer1"
     showgrid="false"
     inkscape:window-width="1366"
     inkscape:window-height="706"
     inkscape:window-x="-8"
     inkscape:window-y="-8"
     inkscape:window-maximized="1" />
  <metadata
     id="metadata11103">
    <rdf:RDF>
      <cc:Work
         rdf:about="">
        <dc:format>image/svg+xml</dc:format>
        <dc:type
           rdf:resource="http://purl.org/dc/dcmitype/StillImage" />
        <dc:title></dc:title>
      </cc:Work>
    </rdf:RDF>
  </metadata>
  <g
     inkscape:label="Layer 1"
     inkscape:groupmode="layer"
     id="layer1"
     transform="translate(-55.387612,-132.39054)">
    <g
       transform="matrix(0.35277777,0,0,-0.35277777,20.874657,360.5104)"
       id="g8138">
      <g
         id="g8140">
        <g
           id="g8146">
          <g
             id="g8148">
            <path
               inkscape:connector-curvature="0"
               id="path8156"
               style="fill:url(#linearGradient8154);stroke:none"
               d="m 157.149,639.69 c -0.274,-0.449 -0.132,-1.036 0.318,-1.311 v 0 c 4.258,-2.601 7.032,-5.672 8.48,-9.387 v 0 c 0.539,-1.384 0.905,-2.842 1.116,-4.456 v 0 c 0.244,-1.863 0.015,-3.882 -0.208,-5.832 v 0 l -0.035,-0.309 c -0.574,-5.032 0.652,-9.682 3.745,-14.219 v 0 c 0.451,-0.661 0.907,-1.363 1.389,-2.145 v 0 l 0.139,-0.225 c 0.152,-0.245 0.304,-0.49 0.448,-0.739 v 0 c 0.599,-1.041 0.823,-1.752 0.681,-2.174 v 0 c -0.146,-0.434 -0.782,-0.882 -1.946,-1.372 v 0 c -0.13,-0.056 -0.264,-0.114 -0.399,-0.173 v 0 l -1.143,-0.506 c -0.468,-0.205 -0.692,-0.74 -0.506,-1.217 v 0 c 0.167,-0.433 0.264,-0.865 0.299,-1.318 v 0 c 0.107,-1.493 -0.629,-2.846 -1.406,-4.28 v 0 c -0.372,-0.684 -0.756,-1.39 -1.06,-2.137 v 0 c -0.615,-1.503 -0.978,-3.176 -1.025,-4.712 v 0 c -0.06,-1.963 -0.505,-3.306 -1.329,-3.993 v 0 c -0.709,-0.591 -1.758,-0.774 -3.208,-0.556 v 0 c -2.527,0.379 -4.911,-0.546 -7.544,-1.698 v 0 l -0.087,-0.045 c -3.465,-1.964 -7.199,-3.334 -11.095,-4.071 v 0 c -2.216,-0.419 -4.489,-0.631 -6.761,-0.631 v 0 h -12.256 c -0.527,0 -0.955,-0.428 -0.955,-0.954 v 0 c 0,-0.527 0.428,-0.954 0.955,-0.954 v 0 h 12.256 c 2.391,0 4.784,0.223 7.115,0.664 v 0 c 4.087,0.773 8.002,2.207 11.638,4.262 v 0 c 2.422,1.06 4.435,1.844 6.45,1.54 v 0 c 1.992,-0.299 3.579,0.03 4.713,0.979 v 0 c 1.279,1.066 1.938,2.833 2.017,5.4 v 0 c 0.038,1.313 0.351,2.751 0.881,4.047 v 0 c 0.265,0.65 0.608,1.283 0.971,1.949 v 0 c 0.874,1.611 1.78,3.277 1.63,5.328 v 0 c -0.023,0.339 -0.072,0.669 -0.151,0.995 v 0 l 0.365,0.16 c 0.128,0.055 0.252,0.11 0.378,0.161 v 0 c 1.245,0.528 2.579,1.24 3.011,2.524 v 0 c 0.428,1.271 -0.183,2.601 -0.837,3.735 v 0 c -0.154,0.267 -0.316,0.529 -0.479,0.791 v 0 l -0.136,0.22 c -0.498,0.809 -0.968,1.535 -1.437,2.221 v 0 c -2.824,4.142 -3.944,8.371 -3.426,12.927 v 0 l 0.035,0.308 c 0.238,2.067 0.481,4.202 0.205,6.297 v 0 c -0.228,1.744 -0.642,3.393 -1.23,4.901 v 0 c -1.606,4.118 -4.636,7.495 -9.264,10.322 v 0 c -0.156,0.095 -0.327,0.14 -0.497,0.14 v 0 c -0.322,0 -0.634,-0.162 -0.815,-0.457" />
          </g>
        </g>
      </g>
    </g>
    <g
       transform="matrix(0.35277777,0,0,-0.35277777,20.874657,360.5104)"
       id="g8158">
      <g
         id="g8160">
        <g
           id="g8166">
          <g
             id="g8168">
            <path
               inkscape:connector-curvature="0"
               id="path8176"
               style="fill:url(#linearGradient8174);stroke:none"
               d="m 114.468,639.985 c -1.851,-1.269 -3.603,-2.711 -5.208,-4.287 v 0 c -7.368,-7.238 -11.428,-16.913 -11.428,-27.24 v 0 -12.486 c 0,-0.528 0.426,-0.953 0.954,-0.953 v 0 c 0.526,0 0.954,0.425 0.954,0.953 v 0 12.486 c 0,9.811 3.854,19.002 10.856,25.879 v 0 c 1.525,1.498 3.191,2.867 4.951,4.073 v 0 c 6.04,4.136 13.118,6.321 20.465,6.321 v 0 c 4.425,0 8.757,-0.795 12.879,-2.361 v 0 c 0.309,-0.117 0.657,-0.066 0.918,0.135 v 0 c 0.244,0.188 0.385,0.48 0.374,0.786 v 0 l -0.005,0.075 c -0.041,0.418 -0.346,0.744 -0.732,0.834 v 0 c -4.305,1.618 -8.822,2.439 -13.434,2.439 v 0 c -7.734,0 -15.183,-2.301 -21.544,-6.654" />
          </g>
        </g>
      </g>
    </g>
    <g
       transform="matrix(0.35277777,0,0,-0.35277777,20.874657,360.5104)"
       id="g8178">
      <g
         id="g8180">
        <g
           id="g8186">
          <g
             id="g8188">
            <path
               inkscape:connector-curvature="0"
               id="path8196"
               style="fill:url(#linearGradient8194);stroke:none"
               d="m 97.832,589.931 v -35.557 c 0,-0.528 0.426,-0.954 0.954,-0.954 v 0 c 0.526,0 0.954,0.426 0.954,0.954 v 0 35.557 c 0,0.527 -0.428,0.954 -0.954,0.954 v 0 c -0.528,0 -0.954,-0.427 -0.954,-0.954" />
          </g>
        </g>
      </g>
    </g>
    <g
       transform="matrix(0.35277777,0,0,-0.35277777,20.874657,360.5104)"
       id="g8198">
      <g
         id="g8200">
        <g
           id="g8206">
          <g
             id="g8208">
            <path
               inkscape:connector-curvature="0"
               id="path8216"
               style="fill:url(#linearGradient8214);stroke:none"
               d="m 119.7,576.239 c -0.526,0 -0.954,-0.426 -0.954,-0.954 v 0 -8.668 c 0,-0.528 0.428,-0.955 0.954,-0.955 v 0 c 0.527,0 0.954,0.427 0.954,0.955 v 0 7.714 h 15.358 c 0.529,0 0.954,0.428 0.954,0.954 v 0 c 0,0.528 -0.425,0.954 -0.954,0.954 v 0 z" />
          </g>
        </g>
      </g>
    </g>
    <g
       transform="matrix(0.35277777,0,0,-0.35277777,20.874657,360.5104)"
       id="g8218">
      <g
         id="g8220">
        <g
           id="g8226">
          <g
             id="g8228">
            <path
               inkscape:connector-curvature="0"
               id="path8236"
               style="fill:url(#linearGradient8234);stroke:none"
               d="m 163.864,625.078 c -0.522,-0.069 -0.89,-0.548 -0.822,-1.07 v 0 c 0.179,-1.369 -0.012,-3.057 -0.218,-4.846 v 0 l -0.035,-0.308 c -0.676,-5.956 0.81,-11.664 4.426,-16.963 v 0 c 0.288,-0.421 0.578,-0.863 0.88,-1.338 v 0 l -3.546,-1.559 c -0.467,-0.205 -0.691,-0.741 -0.506,-1.218 v 0 l 1.402,-3.619 0.034,-0.144 c 0.012,-0.328 -0.55,-1.363 -0.922,-2.048 v 0 c -0.403,-0.743 -0.861,-1.587 -1.253,-2.542 v 0 c -0.803,-1.969 -1.26,-4.086 -1.32,-6.121 v 0 c -0.008,-0.253 -0.024,-0.464 -0.043,-0.639 v 0 c -0.534,0.073 -1.079,0.109 -1.619,0.109 v 0 c -2.901,0 -5.437,-1.007 -7.996,-2.128 v 0 l -0.191,-0.084 -0.086,-0.043 -0.182,-0.103 c -3.134,-1.776 -6.53,-3.005 -10.095,-3.654 v 0 c -0.517,-0.094 -0.861,-0.591 -0.766,-1.109 v 0 c 0.083,-0.461 0.485,-0.783 0.937,-0.783 v 0 l 0.172,0.015 c 3.774,0.687 7.372,1.989 10.692,3.872 v 0 l 0.285,0.142 c 2.366,1.037 4.699,1.968 7.23,1.968 v 0 c 0.501,0 1.005,-0.038 1.495,-0.112 v 0 c 0.281,-0.042 0.538,-0.063 0.775,-0.063 v 0 h 0.002 l 0.166,0.003 c 0.384,0.025 0.716,0.275 0.845,0.637 v 0 c 0.112,0.323 0.254,0.917 0.285,1.912 v 0 c 0.054,1.813 0.464,3.7 1.182,5.46 v 0 c 0.349,0.858 0.781,1.652 1.162,2.351 v 0 c 0.648,1.199 1.212,2.233 1.149,3.098 v 0 c -0.017,0.242 -0.069,0.465 -0.159,0.697 v 0 l -1.072,2.767 3.718,1.636 c 0.252,0.112 0.442,0.325 0.525,0.587 v 0 c 0.084,0.262 0.05,0.547 -0.093,0.782 v 0 l -0.176,0.282 c -0.467,0.757 -0.903,1.432 -1.335,2.064 v 0 c -3.349,4.911 -4.732,10.184 -4.106,15.672 v 0 l 0.035,0.309 c 0.218,1.907 0.425,3.708 0.214,5.309 v 0 c -0.063,0.482 -0.471,0.83 -0.943,0.83 v 0 z" />
          </g>
        </g>
      </g>
    </g>
    <g
       transform="matrix(0.35277777,0,0,-0.35277777,20.874657,360.5104)"
       id="g8238">
      <g
         id="g8240">
        <g
           id="g8246">
          <g
             id="g8248">
            <path
               inkscape:connector-curvature="0"
               id="path8256"
               style="fill:url(#linearGradient8254);stroke:none"
               d="m 116.878,636.701 c -0.436,-0.297 -0.549,-0.891 -0.253,-1.326 v 0 c 0.296,-0.436 0.889,-0.549 1.325,-0.253 v 0 c 5.345,3.633 11.591,5.553 18.062,5.553 v 0 c 3.929,0 7.776,-0.705 11.439,-2.096 v 0 l 2.049,-0.78 c 2.145,-0.866 3.961,-1.746 5.545,-2.683 v 0 c 3.694,-2.192 5.958,-4.607 7.123,-7.597 v 0 c 0.146,-0.377 0.508,-0.608 0.889,-0.608 v 0 c 0.116,0 0.233,0.021 0.346,0.066 v 0 c 0.492,0.191 0.734,0.742 0.544,1.235 v 0 c -1.313,3.362 -3.905,6.158 -7.929,8.542 v 0 c -1.668,0.991 -3.566,1.911 -5.821,2.822 v 0 l -2.069,0.787 c -3.879,1.473 -7.955,2.22 -12.116,2.22 v 0 c -6.855,0 -13.472,-2.034 -19.134,-5.882" />
          </g>
        </g>
      </g>
    </g>
    <g
       transform="matrix(0.35277777,0,0,-0.35277777,20.874657,360.5104)"
       id="g8258">
      <g
         id="g8260">
        <g
           id="g8266">
          <g
             id="g8268">
            <path
               inkscape:connector-curvature="0"
               id="path8276"
               style="fill:url(#linearGradient8274);stroke:none"
               d="m 111.893,632.577 c -6.452,-6.453 -10.005,-15.019 -10.005,-24.119 v 0 -53.677 c 0,-0.527 0.428,-0.954 0.954,-0.954 v 0 c 0.528,0 0.954,0.427 0.954,0.954 v 0 53.677 c 0,8.591 3.354,16.677 9.447,22.77 v 0 c 0.372,0.372 0.372,0.976 0,1.349 v 0 c -0.188,0.186 -0.431,0.279 -0.675,0.279 v 0 c -0.243,0 -0.488,-0.093 -0.675,-0.279" />
          </g>
        </g>
      </g>
    </g>
    <g
       transform="matrix(0.35277777,0,0,-0.35277777,20.874657,360.5104)"
       id="g8278">
      <g
         id="g8280">
        <g
           id="g8286">
          <g
             id="g8288">
            <path
               inkscape:connector-curvature="0"
               id="path8296"
               style="fill:url(#linearGradient8294);stroke:none"
               d="m 159.035,586.778 c -3.158,-0.244 -5.851,-1.329 -8.337,-2.419 v 0 l -0.381,-0.167 -0.087,-0.043 -0.361,-0.206 c -2.619,-1.483 -5.451,-2.532 -8.42,-3.116 v 0 c -1.788,-0.353 -3.617,-0.531 -5.437,-0.531 v 0 h -20.367 c -0.528,0 -0.954,-0.429 -0.954,-0.954 v 0 -17.963 c 0,-0.526 0.426,-0.954 0.954,-0.954 v 0 c 0.526,0 0.953,0.428 0.953,0.954 v 0 17.009 h 19.414 c 1.944,0 3.898,0.19 5.806,0.567 v 0 c 3.169,0.623 6.193,1.744 8.991,3.329 v 0 l 0.318,0.18 0.337,0.148 c 2.337,1.024 4.858,2.042 7.717,2.264 v 0 c 0.526,0.04 0.918,0.499 0.879,1.025 v 0 c -0.039,0.501 -0.458,0.88 -0.954,0.88 v 0 z" />
          </g>
        </g>
      </g>
    </g>
    <g
       transform="matrix(0.35277777,0,0,-0.35277777,20.874657,360.5104)"
       id="g8298">
      <g
         id="g8300">
        <g
           id="g8306">
          <g
             id="g8308">
            <path
               inkscape:connector-curvature="0"
               id="path8316"
               style="fill:url(#linearGradient8314);stroke:none"
               d="m 152.46,633.025 c -0.266,-0.456 -0.112,-1.041 0.342,-1.305 v 0 c 3.919,-2.292 5.065,-4.335 5.586,-5.674 v 0 c 0.301,-0.769 0.506,-1.608 0.632,-2.566 v 0 c 0.115,-0.875 -0.049,-2.323 -0.225,-3.855 v 0 l -0.036,-0.312 c -0.671,-5.905 0.473,-11.599 3.403,-16.937 v 0 l -2.797,-1.23 c -0.467,-0.205 -0.691,-0.742 -0.506,-1.219 v 0 l 2.253,-5.808 -0.119,-0.217 c -0.43,-0.794 -0.969,-1.782 -1.445,-2.948 v 0 c -0.198,-0.487 0.036,-1.044 0.524,-1.243 v 0 c 0.118,-0.048 0.24,-0.072 0.359,-0.072 v 0 c 0.376,0 0.734,0.226 0.884,0.594 v 0 c 0.436,1.069 0.945,2.005 1.355,2.757 v 0 c 0.099,0.184 0.219,0.408 0.333,0.621 v 0 c 0.128,0.244 0.144,0.531 0.045,0.789 v 0 l -2.08,5.367 2.931,1.288 c 0.25,0.111 0.441,0.322 0.525,0.582 v 0 c 0.083,0.26 0.051,0.543 -0.089,0.778 v 0 c -3.105,5.242 -4.343,10.853 -3.68,16.683 v 0 l 0.035,0.31 c 0.19,1.652 0.369,3.212 0.223,4.321 v 0 c -0.146,1.11 -0.391,2.096 -0.746,3.009 v 0 c -0.626,1.605 -1.969,4.037 -6.402,6.629 v 0 c -0.15,0.088 -0.317,0.13 -0.481,0.13 v 0 c -0.328,0 -0.648,-0.169 -0.824,-0.472" />
          </g>
        </g>
      </g>
    </g>
    <g
       transform="matrix(0.35277777,0,0,-0.35277777,20.874657,360.5104)"
       id="g8318">
      <g
         id="g8320">
        <g
           id="g8326">
          <g
             id="g8328">
            <path
               inkscape:connector-curvature="0"
               id="path8336"
               style="fill:url(#linearGradient8334);stroke:none"
               d="m 119.143,633.338 c -1.741,-1.183 -3.362,-2.556 -4.821,-4.077 v 0 c -5.403,-5.63 -8.378,-13.018 -8.378,-20.803 v 0 -9.343 c 0,-0.527 0.427,-0.954 0.954,-0.954 v 0 c 0.527,0 0.954,0.427 0.954,0.954 v 0 9.343 c 0,7.29 2.786,14.209 7.847,19.483 v 0 c 1.367,1.424 2.886,2.71 4.518,3.818 v 0 c 4.672,3.18 10.135,4.861 15.795,4.861 v 0 c 3.435,0 6.797,-0.617 9.998,-1.833 v 0 c 0.493,-0.187 1.043,0.06 1.23,0.554 v 0 c 0.187,0.492 -0.06,1.043 -0.554,1.23 v 0 c -3.416,1.298 -7.007,1.956 -10.674,1.956 v 0 c -6.044,0 -11.879,-1.794 -16.869,-5.189" />
          </g>
        </g>
      </g>
    </g>
    <g
       transform="matrix(0.35277777,0,0,-0.35277777,20.874657,360.5104)"
       id="g8338">
      <g
         id="g8340">
        <g
           id="g8346">
          <g
             id="g8348">
            <path
               inkscape:connector-curvature="0"
               id="path8356"
               style="fill:url(#linearGradient8354);stroke:none"
               d="M 105.944,593.747 V 555.96 c 0,-0.527 0.427,-0.952 0.954,-0.952 v 0 c 0.527,0 0.954,0.425 0.954,0.952 v 0 37.787 c 0,0.527 -0.427,0.954 -0.954,0.954 v 0 c -0.527,0 -0.954,-0.427 -0.954,-0.954" />
          </g>
        </g>
      </g>
    </g>
    <g
       transform="matrix(0.35277777,0,0,-0.35277777,20.874657,360.5104)"
       id="g8358">
      <g
         id="g8360">
        <g
           id="g8366">
          <g
             id="g8368">
            <path
               inkscape:connector-curvature="0"
               id="path8376"
               style="fill:url(#linearGradient8374);stroke:none"
               d="m 115.01,584.351 c -0.526,0 -0.954,-0.427 -0.954,-0.953 v 0 c 0,-0.527 0.428,-0.954 0.954,-0.954 v 0 h 21.002 c 0.529,0 0.954,0.427 0.954,0.954 v 0 c 0,0.526 -0.425,0.953 -0.954,0.953 v 0 z" />
          </g>
        </g>
      </g>
    </g>
    <g
       transform="matrix(0.35277777,0,0,-0.35277777,20.874657,360.5104)"
       id="g8378">
      <g
         id="g8380">
        <g
           id="g8386">
          <g
             id="g8388">
            <path
               inkscape:connector-curvature="0"
               id="path8396"
               style="fill:url(#linearGradient8394);stroke:none"
               d="m 156.856,594.766 c -0.42,-0.809 -0.767,-1.555 -1.062,-2.279 v 0 c -0.305,-0.745 -0.576,-1.511 -0.811,-2.284 v 0 c -2.158,-0.542 -4.112,-1.34 -5.912,-2.13 v 0 l -0.573,-0.251 -0.086,-0.042 -0.542,-0.308 c -2.03,-1.149 -4.218,-1.997 -6.506,-2.518 v 0 c -0.514,-0.117 -0.834,-0.628 -0.718,-1.142 v 0 c 0.1,-0.442 0.494,-0.743 0.928,-0.743 v 0 l 0.214,0.025 c 2.468,0.562 4.831,1.477 7.023,2.72 v 0 l 0.497,0.28 0.528,0.233 c 1.738,0.761 3.787,1.619 6.117,2.146 v 0 c 0.341,0.077 0.614,0.336 0.707,0.673 v 0 c 0.25,0.886 0.552,1.768 0.899,2.62 v 0 c 0.274,0.67 0.598,1.365 0.989,2.122 v 0 c 0.244,0.467 0.063,1.043 -0.406,1.286 v 0 c -0.14,0.072 -0.289,0.107 -0.438,0.107 v 0 c -0.344,0 -0.677,-0.187 -0.848,-0.515" />
          </g>
        </g>
      </g>
    </g>
    <g
       transform="matrix(0.35277777,0,0,-0.35277777,20.874657,360.5104)"
       id="g8398">
      <g
         id="g8400">
        <g
           id="g8406">
          <g
             id="g8408">
            <path
               inkscape:connector-curvature="0"
               id="path8416"
               style="fill:url(#linearGradient11528);stroke:none"
               d="m 121.478,630.022 c -0.436,-0.296 -0.551,-0.89 -0.256,-1.324 v 0 c 0.294,-0.437 0.888,-0.552 1.325,-0.257 v 0 c 3.989,2.697 8.643,4.122 13.465,4.122 v 0 c 2.941,0 5.819,-0.527 8.558,-1.568 v 0 l 1.964,-0.746 c 1.646,-0.668 3.075,-1.356 4.244,-2.045 v 0 c 2.081,-1.222 3.369,-2.444 3.832,-3.63 v 0 c 0.179,-0.462 0.307,-0.992 0.39,-1.621 v 0 c 0.048,-0.383 -0.15,-2.12 -0.235,-2.867 v 0 l -0.035,-0.314 c -0.601,-5.284 0.071,-10.446 2,-15.354 v 0 l -2.549,-1.12 c -0.483,-0.212 -0.702,-0.775 -0.49,-1.256 v 0 c 0.157,-0.36 0.507,-0.571 0.872,-0.571 v 0 c 0.131,0 0.26,0.026 0.386,0.081 v 0 l 3.399,1.494 c 0.479,0.21 0.698,0.767 0.494,1.247 v 0 c -2.069,4.858 -2.815,9.996 -2.217,15.264 v 0 l 0.036,0.316 c 0.176,1.538 0.304,2.76 0.23,3.328 v 0 c -0.103,0.782 -0.268,1.459 -0.503,2.065 v 0 c -0.631,1.619 -2.15,3.118 -4.643,4.584 v 0 c -1.25,0.735 -2.762,1.464 -4.514,2.175 v 0 l -1.985,0.754 c -2.954,1.122 -6.061,1.692 -9.234,1.692 v 0 c -5.203,0 -10.23,-1.539 -14.534,-4.449" />
          </g>
        </g>
      </g>
    </g>
    <g
       transform="matrix(0.35277777,0,0,-0.35277777,20.874657,360.5104)"
       id="g8418">
      <g
         id="g8420">
        <g
           id="g8426">
          <g
             id="g8428">
            <path
               inkscape:connector-curvature="0"
               id="path8436"
               style="fill:url(#linearGradient8434);stroke:none"
               d="M 116.766,625.94 C 112.404,621.14 110,614.932 110,608.458 v 0 -50.669 c 0,-0.528 0.426,-0.955 0.954,-0.955 v 0 c 0.525,0 0.954,0.427 0.954,0.955 v 0 50.669 c 0,5.998 2.225,11.751 6.269,16.199 v 0 c 0.355,0.388 0.326,0.991 -0.064,1.347 v 0 c -0.182,0.166 -0.412,0.247 -0.641,0.247 v 0 c -0.26,0 -0.518,-0.104 -0.706,-0.311" />
          </g>
        </g>
      </g>
    </g>
    <g
       transform="matrix(0.35277777,0,0,-0.35277777,20.874657,360.5104)"
       id="g8438">
      <g
         id="g8440">
        <g
           id="g8446">
          <g
             id="g8448">
            <path
               inkscape:connector-curvature="0"
               id="path8456"
               style="fill:url(#linearGradient9500);stroke:none"
               d="m 123.745,626.659 c -1.812,-1.225 -3.429,-2.709 -4.806,-4.411 v 0 c -3.149,-3.891 -4.883,-8.789 -4.883,-13.79 v 0 -21.005 c 0,-0.526 0.428,-0.954 0.954,-0.954 v 0 c 0.528,0 0.954,0.428 0.954,0.954 v 0 21.005 c 0,4.566 1.582,9.037 4.457,12.59 v 0 c 1.259,1.556 2.737,2.912 4.392,4.031 v 0 c 3.315,2.244 7.19,3.429 11.199,3.429 v 0 c 2.186,0 4.333,-0.351 6.39,-1.043 v 0 c 0.243,-0.082 0.486,-0.17 0.727,-0.259 v 0 l 1.919,-0.731 c 1.138,-0.464 2.151,-0.932 3.012,-1.393 v 0 c 2.111,-1.134 2.695,-1.894 2.789,-2.032 v 0 c 0.026,-0.076 0.061,-0.205 0.096,-0.403 v 0 c -0.028,-0.507 -0.156,-1.637 -0.209,-2.096 v 0 l -0.035,-0.321 c -0.527,-4.622 -0.184,-9.188 1.017,-13.583 v 0 l -2.722,-1.197 c -0.466,-0.205 -0.689,-0.742 -0.505,-1.218 v 0 l 3.761,-9.705 c -0.075,-0.17 -0.145,-0.339 -0.214,-0.507 v 0 c -0.069,-0.168 -0.137,-0.34 -0.203,-0.511 v 0 c -1.638,-0.54 -3.133,-1.168 -4.393,-1.72 v 0 l -0.763,-0.334 -0.085,-0.043 -0.721,-0.409 c -1.968,-1.116 -4.103,-1.885 -6.345,-2.284 v 0 c -1.158,-0.206 -2.342,-0.312 -3.516,-0.312 v 0 h -12.89 c -0.528,0 -0.954,-0.427 -0.954,-0.954 v 0 c 0,-0.526 0.426,-0.954 0.954,-0.954 v 0 h 12.89 c 1.287,0 2.583,0.116 3.853,0.341 v 0 c 2.452,0.439 4.79,1.28 6.948,2.503 v 0 l 0.678,0.384 0.716,0.314 c 1.327,0.581 2.916,1.249 4.644,1.791 v 0 c 0.28,0.088 0.506,0.301 0.609,0.579 v 0 c 0.111,0.298 0.225,0.594 0.345,0.887 v 0 c 0.109,0.27 0.226,0.542 0.351,0.817 v 0 c 0.102,0.232 0.108,0.497 0.017,0.735 v 0 l -3.574,9.221 2.65,1.166 c 0.441,0.192 0.668,0.683 0.53,1.145 v 0 c -1.315,4.397 -1.712,8.982 -1.184,13.632 v 0 l 0.039,0.339 c 0.1,0.885 0.207,1.855 0.221,2.319 v 0 l -0.012,0.177 c -0.056,0.377 -0.134,0.685 -0.235,0.949 v 0 c -0.12,0.302 -0.736,1.405 -3.648,2.966 v 0 c -0.918,0.492 -1.992,0.99 -3.212,1.486 v 0 l -1.942,0.737 c -0.264,0.101 -0.53,0.196 -0.796,0.286 v 0 c -2.254,0.758 -4.605,1.142 -6.998,1.142 v 0 c -4.392,0 -8.634,-1.299 -12.267,-3.756" />
          </g>
        </g>
      </g>
    </g>
    <g
       transform="matrix(0.35277777,0,0,-0.35277777,20.874657,360.5104)"
       id="g8458">
      <g
         id="g8460">
        <g
           id="g8466">
          <g
             id="g8468">
            <path
               inkscape:connector-curvature="0"
               id="path8476"
               style="fill:url(#linearGradient8474);stroke:none"
               d="m 118.111,599.115 v -7.604 c 0,-0.529 0.428,-0.955 0.955,-0.955 v 0 h 16.946 c 0.529,0 0.954,0.426 0.954,0.955 v 0 c 0,0.525 -0.425,0.953 -0.954,0.953 v 0 H 120.02 v 6.651 c 0,0.527 -0.427,0.954 -0.954,0.954 v 0 c -0.527,0 -0.955,-0.427 -0.955,-0.954" />
          </g>
        </g>
      </g>
    </g>
    <g
       transform="matrix(0.35277777,0,0,-0.35277777,20.874657,360.5104)"
       id="g8478">
      <g
         id="g8480">
        <g
           id="g8486">
          <g
             id="g8488">
            <path
               inkscape:connector-curvature="0"
               id="path8496"
               style="fill:url(#linearGradient8494);stroke:none"
               d="m 143.852,607.618 c -0.492,-0.19 -0.736,-0.743 -0.545,-1.234 v 0 l 3.974,-10.253 c -0.559,-0.232 -1.061,-0.449 -1.468,-0.628 v 0 l -0.951,-0.417 -0.086,-0.044 -0.902,-0.509 c -1.493,-0.847 -3.11,-1.444 -4.805,-1.774 v 0 c -0.519,-0.101 -0.854,-0.602 -0.753,-1.119 v 0 c 0.089,-0.455 0.486,-0.772 0.935,-0.772 v 0 l 0.183,0.018 c 1.897,0.37 3.707,1.039 5.38,1.987 v 0 l 0.858,0.485 0.907,0.398 c 0.597,0.262 1.394,0.608 2.281,0.957 v 0 c 0.488,0.191 0.728,0.742 0.539,1.232 v 0 l -4.314,11.128 c -0.146,0.378 -0.506,0.61 -0.888,0.61 v 0 c -0.115,0 -0.232,-0.021 -0.345,-0.065" />
          </g>
        </g>
      </g>
    </g>
    <g
       transform="matrix(0.35277777,0,0,-0.35277777,20.874657,360.5104)"
       id="g8498">
      <g
         id="g8500">
        <g
           id="g8506">
          <g
             id="g8508">
            <path
               inkscape:connector-curvature="0"
               id="path8516"
               style="fill:url(#linearGradient8514);stroke:none"
               d="m 146.116,622.623 c -0.258,-0.459 -0.098,-1.041 0.36,-1.301 v 0 l 0.247,-0.145 c -0.027,-0.254 -0.054,-0.488 -0.054,-0.488 v 0 c -0.477,-4.194 -0.306,-8.375 0.504,-12.429 v 0 c 0.089,-0.452 0.488,-0.766 0.935,-0.766 v 0 l 0.187,0.019 c 0.516,0.103 0.851,0.605 0.748,1.122 v 0 c -0.773,3.859 -0.933,7.842 -0.477,11.839 v 0 c 0,0 0.099,0.878 0.121,1.089 v 0 c 0.039,0.353 -0.121,0.698 -0.417,0.896 v 0 c -0.252,0.169 -0.54,0.346 -0.854,0.523 v 0 c -0.149,0.083 -0.31,0.124 -0.469,0.124 v 0 c -0.332,0 -0.655,-0.174 -0.831,-0.483" />
          </g>
        </g>
      </g>
    </g>
    <g
       transform="matrix(0.35277777,0,0,-0.35277777,20.874657,360.5104)"
       id="g8518">
      <g
         id="g8520">
        <g
           id="g8526">
          <g
             id="g8528">
            <path
               inkscape:connector-curvature="0"
               id="path8536"
               style="fill:url(#linearGradient8534);stroke:none"
               d="m 126.01,623.297 c -0.437,-0.295 -0.551,-0.888 -0.256,-1.324 v 0 c 0.186,-0.273 0.485,-0.42 0.791,-0.42 v 0 c 0.183,0 0.37,0.053 0.534,0.163 v 0 c 2.645,1.79 5.737,2.735 8.933,2.735 v 0 c 1.487,0 2.959,-0.204 4.374,-0.607 v 0 c 0.145,-0.041 0.246,-0.068 0.331,-0.09 v 0 c 0.175,-0.047 0.242,-0.064 0.516,-0.169 v 0 c 0.494,-0.187 1.043,0.06 1.232,0.553 v 0 c 0.188,0.493 -0.061,1.043 -0.554,1.232 v 0 c -0.353,0.133 -0.478,0.168 -0.706,0.227 v 0 c -0.075,0.021 -0.167,0.045 -0.297,0.082 v 0 c -1.584,0.451 -3.232,0.68 -4.896,0.68 v 0 c -3.581,0 -7.038,-1.059 -10.002,-3.062" />
          </g>
        </g>
      </g>
    </g>
    <g
       transform="matrix(0.35277777,0,0,-0.35277777,20.874657,360.5104)"
       id="g8538">
      <g
         id="g8540">
        <g
           id="g8546">
          <g
             id="g8548">
            <path
               inkscape:connector-curvature="0"
               id="path8556"
               style="fill:url(#linearGradient8554);stroke:none"
               d="m 121.728,619.235 c -2.365,-3.127 -3.617,-6.855 -3.617,-10.777 v 0 -3.265 c 0,-0.526 0.428,-0.954 0.955,-0.954 v 0 c 0.527,0 0.954,0.428 0.954,0.954 v 0 3.265 c 0,3.503 1.115,6.832 3.23,9.627 v 0 c 0.317,0.42 0.234,1.019 -0.186,1.335 v 0 c -0.173,0.131 -0.373,0.194 -0.575,0.194 v 0 c -0.289,0 -0.574,-0.13 -0.761,-0.379" />
          </g>
        </g>
      </g>
    </g>
    <g
       transform="matrix(0.35277777,0,0,-0.35277777,20.874657,360.5104)"
       id="g8558">
      <g
         id="g8560">
        <g
           id="g8566">
          <g
             id="g8568">
            <path
               inkscape:connector-curvature="0"
               id="path8576"
               style="fill:url(#linearGradient8574);stroke:none"
               d="m 128.276,619.935 c -3.825,-2.586 -6.108,-6.878 -6.108,-11.477 v 0 -12.893 c 0,-0.526 0.426,-0.953 0.954,-0.953 v 0 h 12.89 c 1.189,0 2.371,0.153 3.521,0.454 v 0 c 1.149,0.304 2.254,0.753 3.283,1.336 v 0 l 0.968,0.548 c 0.412,0.232 0.591,0.734 0.419,1.175 v 0 l -2.196,5.664 c -0.189,0.492 -0.741,0.736 -1.233,0.545 v 0 c -0.491,-0.191 -0.735,-0.745 -0.543,-1.234 v 0 l 1.896,-4.896 -0.251,-0.141 c -0.886,-0.503 -1.839,-0.891 -2.829,-1.151 v 0 c -0.992,-0.261 -2.011,-0.393 -3.035,-0.393 v 0 h -11.936 v 11.939 c 0,3.966 1.969,7.666 5.268,9.897 v 0 c 1.976,1.335 4.282,2.04 6.668,2.04 v 0 c 0.729,0 1.453,-0.065 2.158,-0.194 v 0 c 0.706,-0.129 1.406,-0.324 2.078,-0.58 v 0 l 1.823,-0.693 c 0.125,-0.051 0.246,-0.101 0.361,-0.15 v 0 c -0.01,-0.168 -0.02,-0.337 -0.028,-0.505 v 0 c -0.124,-2.504 -0.037,-5.022 0.259,-7.485 v 0 c 0.064,-0.523 0.537,-0.896 1.062,-0.834 v 0 c 0.523,0.063 0.896,0.538 0.833,1.061 v 0 c -0.284,2.357 -0.367,4.767 -0.248,7.163 v 0 c 0.018,0.378 0.044,0.755 0.072,1.133 v 0 c 0.029,0.399 -0.195,0.775 -0.558,0.941 v 0 c -0.307,0.138 -0.648,0.285 -1.053,0.451 v 0 l -1.845,0.701 c -0.782,0.297 -1.593,0.524 -2.412,0.673 v 0 c -0.819,0.151 -1.659,0.225 -2.502,0.225 v 0 c -2.769,0 -5.445,-0.818 -7.736,-2.367" />
          </g>
        </g>
      </g>
    </g>
    <g
       transform="matrix(0.35277777,0,0,-0.35277777,20.874657,360.5104)"
       id="g9030">
      <g
         clip-path="url(#clipPath9036)"
         id="g9032">
        <g
           transform="translate(213.5557,611.8096)"
           id="g9038">
          <path
             inkscape:connector-curvature="0"
             id="path9040"
             style="fill:#8d198f;fill-opacity:1;fill-rule:nonzero;stroke:none"
             d="m 0,0 c 2.721,0 4.505,2.38 4.505,5.229 0,2.761 -1.699,5.099 -4.505,5.099 -2.168,0.043 -4.293,0 -6.46,0 V 0 Z m -12.708,-13.855 v 29.751 c 4.25,0.042 8.457,0 12.708,0 6.927,0 10.583,-5.228 10.583,-10.838 C 10.583,-0.468 6.8,-5.439 0,-5.439 h -6.333 v -8.416 z" />
        </g>
        <g
           transform="translate(241.3516,612.9995)"
           id="g9042">
          <path
             inkscape:connector-curvature="0"
             id="path9044"
             style="fill:#8d198f;fill-opacity:1;fill-rule:nonzero;stroke:none"
             d="M 0,0 C 2.678,0 4.421,2.083 4.377,4.633 4.377,7.14 2.72,9.138 0,9.138 H -6.375 V 0 Z m 11.943,-14.152 v -0.893 h -6.8 l -6.121,9.817 H -6.29 v -9.817 h -6.375 v 29.751 c 4.25,0 8.457,0.042 12.707,0 6.801,0 10.499,-4.931 10.499,-10.201 0,-3.782 -1.913,-7.097 -5.313,-8.755 z" />
        </g>
        <g
           transform="translate(271.2725,602.9697)"
           id="g9046">
          <path
             inkscape:connector-curvature="0"
             id="path9048"
             style="fill:#8d198f;fill-opacity:1;fill-rule:nonzero;stroke:none"
             d="M 0,0 V -5.058 H -14.79 V 0 h 4.207 v 19.763 h -3.867 v 4.93 h 14.11 v -4.93 H -4.207 V 0 Z" />
        </g>
        <g
           transform="translate(295.9072,627.6626)"
           id="g9050">
          <path
             inkscape:connector-curvature="0"
             id="path9052"
             style="fill:#8d198f;fill-opacity:1;fill-rule:nonzero;stroke:none"
             d="M 0,0 H 6.874 V -0.935 L -6.009,-29.822 H -8.69 L -21.704,-0.935 V 0 h 6.874 l 7.493,-17.514 z" />
        </g>
        <g
           transform="translate(305.2393,597.8403)"
           id="g9054">
          <path
             inkscape:connector-curvature="0"
             id="path9056"
             style="fill:#8d198f;fill-opacity:1;fill-rule:nonzero;stroke:none"
             d="M 0,0 H -6.874 V 0.935 L 6.01,29.822 H 8.69 L 21.704,0.935 V 0 H 14.829 L 7.338,17.513 Z" />
        </g>
        <g
           transform="translate(342.3848,627.96)"
           id="g9058">
          <path
             inkscape:connector-curvature="0"
             id="path9060"
             style="fill:#8d198f;fill-opacity:1;fill-rule:nonzero;stroke:none"
             d="M 0,0 C 5.992,0 12.367,-3.23 13.728,-10.583 H 7.564 C 6.247,-7.225 3.569,-5.738 0,-5.738 c -5.271,0 -8.798,-3.825 -8.798,-9.477 0,-5.1 3.443,-9.35 8.756,-9.35 3.697,0 6.714,1.742 7.734,5.355 h 6.121 C 12.538,-27.073 6.204,-30.346 0,-30.346 c -7.821,0 -15.216,5.271 -15.216,15.131 C -15.216,-5.312 -7.821,0.128 0,0" />
        </g>
        <g
           transform="translate(370.5625,615.6348)"
           id="g9062">
          <path
             inkscape:connector-curvature="0"
             id="path9064"
             style="fill:#8d198f;fill-opacity:1;fill-rule:nonzero;stroke:none"
             d="m 0,0 2.933,5.908 3.57,6.119 h 6.758 V 11.093 L 3.06,-5.823 v -11.9 h -6.375 v 11.9 l -10.243,16.916 v 0.934 h 6.844 L -3.017,5.695 -0.212,0 Z" />
        </g>
        <g
           transform="translate(235.2559,576.3335)"
           id="g9066">
          <path
             inkscape:connector-curvature="0"
             id="path9068"
             style="fill:#8d198f;fill-opacity:1;fill-rule:nonzero;stroke:none"
             d="m 0,0 c 2.043,0 3.899,1.35 3.899,4.218 0,2.793 -1.836,4.18 -3.88,4.18 -2.062,0 -3.9,-1.404 -3.9,-4.18 C -3.881,1.35 -2.099,0 0,0 m -0.038,-2.567 c -3.505,0 -6.674,2.361 -6.674,6.785 0,4.425 3.244,6.768 6.731,6.768 3.43,0 6.673,-2.362 6.673,-6.768 0,-3.993 -2.755,-6.785 -6.73,-6.785" />
        </g>
        <g
           transform="translate(253.7021,581.4893)"
           id="g9070">
          <path
             inkscape:connector-curvature="0"
             id="path9072"
             style="fill:#8d198f;fill-opacity:1;fill-rule:nonzero;stroke:none"
             d="M 0,0 V -7.498 H -2.793 V 5.68 h 0.882 L 5.456,-1.819 V 5.624 H 8.269 V -7.536 H 7.424 Z" />
        </g>
        <g
           transform="translate(279.7041,584.6572)"
           id="g9074">
          <path
             inkscape:connector-curvature="0"
             id="path9076"
             style="fill:#8d198f;fill-opacity:1;fill-rule:nonzero;stroke:none"
             d="m 0,0 h -5.212 v -2.662 h 4.875 v -2.455 h -4.875 v -3 H 0.15 v -2.55 H -8.042 V 2.457 H 0 Z" />
        </g>
        <g
           transform="translate(290.166,577.8711)"
           id="g9078">
          <path
             inkscape:connector-curvature="0"
             id="path9080"
             style="fill:#8d198f;fill-opacity:1;fill-rule:nonzero;stroke:none"
             d="m 0,0 c 0.056,-1.2 1.368,-1.706 2.644,-1.706 1.161,0 2.511,0.282 2.511,1.649 0,1.5 -1.612,1.632 -2.869,1.726 -2.381,0.206 -4.78,1.012 -4.78,3.73 0,2.906 2.381,4.124 4.986,4.124 2.457,0 5.006,-1.03 5.006,-3.974 H 4.874 C 4.724,6.617 3.617,7.067 2.492,7.067 1.368,7.067 0.263,6.468 0.263,5.456 c 0,-1.163 1.142,-1.425 2.51,-1.575 2.776,-0.244 5.156,-0.863 5.156,-3.938 0,-3.092 -2.679,-4.049 -5.268,-4.104 -2.625,0 -5.342,1.293 -5.342,4.161 z" />
        </g>
        <g
           transform="translate(305.7441,584.6763)"
           id="g9082">
          <path
             inkscape:connector-curvature="0"
             id="path9084"
             style="fill:#8d198f;fill-opacity:1;fill-rule:nonzero;stroke:none"
             d="M 0,0 V 2.437 H 9.711 V 0 H 6.224 V -10.686 H 3.506 V 0 Z" />
        </g>
        <g
           transform="translate(329.665,576.3335)"
           id="g9086">
          <path
             inkscape:connector-curvature="0"
             id="path9088"
             style="fill:#8d198f;fill-opacity:1;fill-rule:nonzero;stroke:none"
             d="m 0,0 c 2.043,0 3.899,1.35 3.899,4.218 0,2.793 -1.836,4.18 -3.881,4.18 -2.062,0 -3.899,-1.404 -3.899,-4.18 C -3.881,1.35 -2.101,0 0,0 m -0.037,-2.567 c -3.506,0 -6.674,2.361 -6.674,6.785 0,4.425 3.243,6.768 6.729,6.768 3.431,0 6.673,-2.362 6.673,-6.768 0,-3.993 -2.755,-6.785 -6.728,-6.785" />
        </g>
        <g
           transform="translate(350.9424,580.1206)"
           id="g9090">
          <path
             inkscape:connector-curvature="0"
             id="path9092"
             style="fill:#8d198f;fill-opacity:1;fill-rule:nonzero;stroke:none"
             d="m 0,0 c 1.2,0 1.986,1.05 1.986,2.306 0,1.218 -0.75,2.25 -1.986,2.25 -0.957,0.018 -1.894,0 -2.85,0 V 0 Z M -5.605,-6.111 V 7.011 c 1.875,0.019 3.73,0 5.605,0 3.055,0 4.668,-2.305 4.668,-4.78 0,-2.437 -1.669,-4.63 -4.668,-4.63 h -2.793 v -3.712 z" />
        </g>
      </g>
    </g>
  </g>
</svg>
