<?xml version="1.0" encoding="UTF-8" standalone="no"?>
<!-- Created with Inkscape (http://www.inkscape.org/) -->

<svg
   xmlns:dc="http://purl.org/dc/elements/1.1/"
   xmlns:cc="http://creativecommons.org/ns#"
   xmlns:rdf="http://www.w3.org/1999/02/22-rdf-syntax-ns#"
   xmlns:svg="http://www.w3.org/2000/svg"
   xmlns="http://www.w3.org/2000/svg"
   xmlns:sodipodi="http://sodipodi.sourceforge.net/DTD/sodipodi-0.dtd"
   xmlns:inkscape="http://www.inkscape.org/namespaces/inkscape"
   width="80.79715mm"
   height="89.326721mm"
   viewBox="0 0 80.79715 89.326721"
   version="1.1"
   id="svg8"
   inkscape:version="0.92.4 (5da689c313, 2019-01-14)"
   sodipodi:docname="purple logo.svg">
  <defs
     id="defs2">
    <clipPath
       id="clipPath6292"
       clipPathUnits="userSpaceOnUse">
      <path
         inkscape:connector-curvature="0"
         id="path6290"
         d="M 0,841.89 H 481.89 V 0 H 0 Z" />
    </clipPath>
    <linearGradient
       id="linearGradient5702"
       spreadMethod="pad"
       gradientTransform="matrix(-88.522819,-139.33176,139.33176,-88.522819,252.78125,725.125)"
       gradientUnits="userSpaceOnUse"
       y2="0"
       x2="1"
       y1="0"
       x1="0">
      <stop
         id="stop5698"
         offset="0"
         style="stop-opacity:1;stop-color:#502891" />
      <stop
         id="stop5700"
         offset="1"
         style="stop-opacity:1;stop-color:#a91b60" />
    </linearGradient>
    <linearGradient
       id="linearGradient5682"
       spreadMethod="pad"
       gradientTransform="matrix(-88.522819,-139.33176,139.33176,-88.522819,259.28125,721.125)"
       gradientUnits="userSpaceOnUse"
       y2="0"
       x2="1"
       y1="0"
       x1="0">
      <stop
         id="stop5678"
         offset="0"
         style="stop-opacity:1;stop-color:#502891" />
      <stop
         id="stop5680"
         offset="1"
         style="stop-opacity:1;stop-color:#a91b60" />
    </linearGradient>
    <linearGradient
       id="linearGradient5662"
       spreadMethod="pad"
       gradientTransform="matrix(-88.522819,-139.33176,139.33176,-88.522819,281.4375,707)"
       gradientUnits="userSpaceOnUse"
       y2="0"
       x2="1"
       y1="0"
       x1="0">
      <stop
         id="stop5658"
         offset="0"
         style="stop-opacity:1;stop-color:#502891" />
      <stop
         id="stop5660"
         offset="1"
         style="stop-opacity:1;stop-color:#a91b60" />
    </linearGradient>
    <linearGradient
       id="linearGradient5642"
       spreadMethod="pad"
       gradientTransform="matrix(-88.522819,-139.33176,139.33176,-88.522819,289.21875,702)"
       gradientUnits="userSpaceOnUse"
       y2="0"
       x2="1"
       y1="0"
       x1="0">
      <stop
         id="stop5638"
         offset="0"
         style="stop-opacity:1;stop-color:#502891" />
      <stop
         id="stop5640"
         offset="1"
         style="stop-opacity:1;stop-color:#a91b60" />
    </linearGradient>
    <linearGradient
       id="linearGradient5622"
       spreadMethod="pad"
       gradientTransform="matrix(-88.522819,-139.33176,139.33176,-88.522819,272.875,712.375)"
       gradientUnits="userSpaceOnUse"
       y2="0"
       x2="1"
       y1="0"
       x1="0">
      <stop
         id="stop5618"
         offset="0"
         style="stop-opacity:1;stop-color:#502891" />
      <stop
         id="stop5620"
         offset="1"
         style="stop-opacity:1;stop-color:#a91b60" />
    </linearGradient>
    <linearGradient
       id="linearGradient5602"
       spreadMethod="pad"
       gradientTransform="matrix(-88.522819,-139.33176,139.33176,-88.522819,271,713.5)"
       gradientUnits="userSpaceOnUse"
       y2="0"
       x2="1"
       y1="0"
       x1="0">
      <stop
         id="stop5598"
         offset="0"
         style="stop-opacity:1;stop-color:#502891" />
      <stop
         id="stop5600"
         offset="1"
         style="stop-opacity:1;stop-color:#a91b60" />
    </linearGradient>
    <linearGradient
       id="linearGradient5582"
       spreadMethod="pad"
       gradientTransform="matrix(-88.522819,-139.33176,139.33176,-88.522819,260.1875,720.5)"
       gradientUnits="userSpaceOnUse"
       y2="0"
       x2="1"
       y1="0"
       x1="0">
      <stop
         id="stop5578"
         offset="0"
         style="stop-opacity:1;stop-color:#502891" />
      <stop
         id="stop5580"
         offset="1"
         style="stop-opacity:1;stop-color:#a91b60" />
    </linearGradient>
    <linearGradient
       id="linearGradient5562"
       spreadMethod="pad"
       gradientTransform="matrix(-88.522819,-139.33176,139.33176,-88.522819,270.5,713.875)"
       gradientUnits="userSpaceOnUse"
       y2="0"
       x2="1"
       y1="0"
       x1="0">
      <stop
         id="stop5558"
         offset="0"
         style="stop-opacity:1;stop-color:#502891" />
      <stop
         id="stop5560"
         offset="1"
         style="stop-opacity:1;stop-color:#a91b60" />
    </linearGradient>
    <linearGradient
       id="linearGradient5542"
       spreadMethod="pad"
       gradientTransform="matrix(-88.522819,-139.33176,139.33176,-88.522819,303.46875,693)"
       gradientUnits="userSpaceOnUse"
       y2="0"
       x2="1"
       y1="0"
       x1="0">
      <stop
         id="stop5538"
         offset="0"
         style="stop-opacity:1;stop-color:#502891" />
      <stop
         id="stop5540"
         offset="1"
         style="stop-opacity:1;stop-color:#a91b60" />
    </linearGradient>
    <linearGradient
       id="linearGradient5522"
       spreadMethod="pad"
       gradientTransform="matrix(-88.522819,-139.33176,139.33176,-88.522819,279.375,708.25)"
       gradientUnits="userSpaceOnUse"
       y2="0"
       x2="1"
       y1="0"
       x1="0">
      <stop
         id="stop5518"
         offset="0"
         style="stop-opacity:1;stop-color:#502891" />
      <stop
         id="stop5520"
         offset="1"
         style="stop-opacity:1;stop-color:#a91b60" />
    </linearGradient>
    <linearGradient
       id="linearGradient5502"
       spreadMethod="pad"
       gradientTransform="matrix(-88.522819,-139.33176,139.33176,-88.522819,264.03125,718.125)"
       gradientUnits="userSpaceOnUse"
       y2="0"
       x2="1"
       y1="0"
       x1="0">
      <stop
         id="stop5498"
         offset="0"
         style="stop-opacity:1;stop-color:#502891" />
      <stop
         id="stop5500"
         offset="1"
         style="stop-opacity:1;stop-color:#a91b60" />
    </linearGradient>
    <linearGradient
       id="linearGradient5482"
       spreadMethod="pad"
       gradientTransform="matrix(-88.522819,-139.33176,139.33176,-88.522819,254.71875,724)"
       gradientUnits="userSpaceOnUse"
       y2="0"
       x2="1"
       y1="0"
       x1="0">
      <stop
         id="stop5478"
         offset="0"
         style="stop-opacity:1;stop-color:#502891" />
      <stop
         id="stop5480"
         offset="1"
         style="stop-opacity:1;stop-color:#a91b60" />
    </linearGradient>
    <linearGradient
       id="linearGradient5462"
       spreadMethod="pad"
       gradientTransform="matrix(-88.522819,-139.33176,139.33176,-88.522819,296.9375,697.125)"
       gradientUnits="userSpaceOnUse"
       y2="0"
       x2="1"
       y1="0"
       x1="0">
      <stop
         id="stop5458"
         offset="0"
         style="stop-opacity:1;stop-color:#502891" />
      <stop
         id="stop5460"
         offset="1"
         style="stop-opacity:1;stop-color:#a91b60" />
    </linearGradient>
    <linearGradient
       id="linearGradient5442"
       spreadMethod="pad"
       gradientTransform="matrix(-88.522819,-139.33176,139.33176,-88.522819,300.53125,694.75)"
       gradientUnits="userSpaceOnUse"
       y2="0"
       x2="1"
       y1="0"
       x1="0">
      <stop
         id="stop5438"
         offset="0"
         style="stop-opacity:1;stop-color:#502891" />
      <stop
         id="stop5440"
         offset="1"
         style="stop-opacity:1;stop-color:#a91b60" />
    </linearGradient>
    <linearGradient
       id="linearGradient5422"
       spreadMethod="pad"
       gradientTransform="matrix(-88.522819,-139.33176,139.33176,-88.522819,251,726.25)"
       gradientUnits="userSpaceOnUse"
       y2="0"
       x2="1"
       y1="0"
       x1="0">
      <stop
         id="stop5418"
         offset="0"
         style="stop-opacity:1;stop-color:#502891" />
      <stop
         id="stop5420"
         offset="1"
         style="stop-opacity:1;stop-color:#a91b60" />
    </linearGradient>
    <linearGradient
       id="linearGradient5402"
       spreadMethod="pad"
       gradientTransform="matrix(-88.522812,-139.33174,139.33174,-88.522812,258.5,721.5)"
       gradientUnits="userSpaceOnUse"
       y2="0"
       x2="1"
       y1="0"
       x1="0">
      <stop
         id="stop5398"
         offset="0"
         style="stop-opacity:1;stop-color:#502891" />
      <stop
         id="stop5400"
         offset="1"
         style="stop-opacity:1;stop-color:#a91b60" />
    </linearGradient>
    <linearGradient
       id="linearGradient5382"
       spreadMethod="pad"
       gradientTransform="matrix(-88.522819,-139.33176,139.33176,-88.522819,302.5,693.5)"
       gradientUnits="userSpaceOnUse"
       y2="0"
       x2="1"
       y1="0"
       x1="0">
      <stop
         id="stop5378"
         offset="0"
         style="stop-opacity:1;stop-color:#502891" />
      <stop
         id="stop5380"
         offset="1"
         style="stop-opacity:1;stop-color:#a91b60" />
    </linearGradient>
    <linearGradient
       id="linearGradient5362"
       spreadMethod="pad"
       gradientTransform="matrix(-88.522819,-139.33176,139.33176,-88.522819,291.4375,700.625)"
       gradientUnits="userSpaceOnUse"
       y2="0"
       x2="1"
       y1="0"
       x1="0">
      <stop
         id="stop5358"
         offset="0"
         style="stop-opacity:1;stop-color:#502891" />
      <stop
         id="stop5360"
         offset="1"
         style="stop-opacity:1;stop-color:#a91b60" />
    </linearGradient>
    <linearGradient
       id="linearGradient5342"
       spreadMethod="pad"
       gradientTransform="matrix(-88.522819,-139.33176,139.33176,-88.522819,256.40625,722.875)"
       gradientUnits="userSpaceOnUse"
       y2="0"
       x2="1"
       y1="0"
       x1="0">
      <stop
         id="stop5338"
         offset="0"
         style="stop-opacity:1;stop-color:#502891" />
      <stop
         id="stop5340"
         offset="1"
         style="stop-opacity:1;stop-color:#a91b60" />
    </linearGradient>
    <linearGradient
       id="linearGradient5322"
       spreadMethod="pad"
       gradientTransform="matrix(-88.522819,-139.33176,139.33176,-88.522819,249.78125,727)"
       gradientUnits="userSpaceOnUse"
       y2="0"
       x2="1"
       y1="0"
       x1="0">
      <stop
         id="stop5318"
         offset="0"
         style="stop-opacity:1;stop-color:#502891" />
      <stop
         id="stop5320"
         offset="1"
         style="stop-opacity:1;stop-color:#a91b60" />
    </linearGradient>
    <linearGradient
       id="linearGradient5302"
       spreadMethod="pad"
       gradientTransform="matrix(-88.522819,-139.33176,139.33176,-88.522819,290.9375,700.875)"
       gradientUnits="userSpaceOnUse"
       y2="0"
       x2="1"
       y1="0"
       x1="0">
      <stop
         id="stop5298"
         offset="0"
         style="stop-opacity:1;stop-color:#502891" />
      <stop
         id="stop5300"
         offset="1"
         style="stop-opacity:1;stop-color:#a91b60" />
    </linearGradient>
    <clipPath
       id="clipPath5256"
       clipPathUnits="userSpaceOnUse">
      <path
         inkscape:connector-curvature="0"
         id="path5254"
         d="M 0,841.89 H 481.89 V 0 H 0 Z" />
    </clipPath>
  </defs>
  <sodipodi:namedview
     id="base"
     pagecolor="#ffffff"
     bordercolor="#666666"
     borderopacity="1.0"
     inkscape:pageopacity="0.0"
     inkscape:pageshadow="2"
     inkscape:zoom="0.35"
     inkscape:cx="155.54467"
     inkscape:cy="91.663518"
     inkscape:document-units="mm"
     inkscape:current-layer="layer1"
     showgrid="false"
     inkscape:window-width="1366"
     inkscape:window-height="706"
     inkscape:window-x="-8"
     inkscape:window-y="-8"
     inkscape:window-maximized="1" />
  <metadata
     id="metadata5">
    <rdf:RDF>
      <cc:Work
         rdf:about="">
        <dc:format>image/svg+xml</dc:format>
        <dc:type
           rdf:resource="http://purl.org/dc/dcmitype/StillImage" />
        <dc:title></dc:title>
      </cc:Work>
    </rdf:RDF>
  </metadata>
  <g
     inkscape:label="Layer 1"
     inkscape:groupmode="layer"
     id="layer1"
     transform="translate(-64.678806,-83.759255)">
    <g
       transform="matrix(0.35277777,0,0,-0.35277777,19.893844,338.96716)"
       id="g5250">
      <g
         clip-path="url(#clipPath5256)"
         id="g5252">
        <g
           transform="translate(142.8555,517.9038)"
           id="g5258">
          <path
             inkscape:connector-curvature="0"
             id="path5260"
             style="fill:#8d198f;fill-opacity:1;fill-rule:nonzero;stroke:none"
             d="m 0,0 c 3.405,0 5.639,2.979 5.639,6.544 0,3.457 -2.128,6.383 -5.639,6.383 -2.713,0.054 -5.373,0 -8.086,0 V 0 Z m -15.906,-17.343 v 37.239 c 5.319,0.054 10.586,0 15.906,0 8.671,0 13.247,-6.543 13.247,-13.565 0,-6.916 -4.735,-13.14 -13.247,-13.14 h -7.927 v -10.534 z" />
        </g>
        <g
           transform="translate(177.6479,519.3931)"
           id="g5262">
          <path
             inkscape:connector-curvature="0"
             id="path5264"
             style="fill:#8d198f;fill-opacity:1;fill-rule:nonzero;stroke:none"
             d="M 0,0 C 3.352,0 5.533,2.607 5.479,5.799 5.479,8.937 3.405,11.438 0,11.438 H -7.98 V 0 Z m 14.949,-17.715 v -1.117 H 6.437 l -7.661,12.288 h -6.649 v -12.288 h -7.98 v 37.239 c 5.32,0 10.586,0.053 15.906,0 8.512,0 13.14,-6.171 13.14,-12.768 0,-4.735 -2.394,-8.884 -6.65,-10.959 z" />
        </g>
        <g
           transform="translate(215.1006,506.8384)"
           id="g5266">
          <path
             inkscape:connector-curvature="0"
             id="path5268"
             style="fill:#8d198f;fill-opacity:1;fill-rule:nonzero;stroke:none"
             d="M 0,0 V -6.331 H -18.513 V 0 h 5.266 v 24.738 h -4.841 v 6.171 H -0.426 V 24.738 H -5.267 V 0 Z" />
        </g>
        <g
           transform="translate(245.9355,537.7471)"
           id="g5270">
          <path
             inkscape:connector-curvature="0"
             id="path5272"
             style="fill:#8d198f;fill-opacity:1;fill-rule:nonzero;stroke:none"
             d="M 0,0 H 8.604 V -1.17 L -7.522,-37.329 h -3.356 L -27.167,-1.17 V 0 h 8.605 l 9.378,-21.922 z" />
        </g>
        <g
           transform="translate(257.6162,500.418)"
           id="g5274">
          <path
             inkscape:connector-curvature="0"
             id="path5276"
             style="fill:#8d198f;fill-opacity:1;fill-rule:nonzero;stroke:none"
             d="M 0,0 H -8.604 V 1.17 L 7.522,37.329 h 3.356 L 27.167,1.17 V 0 H 18.562 L 9.185,21.922 Z" />
        </g>
        <g
           transform="translate(304.1113,538.1191)"
           id="g5278">
          <path
             inkscape:connector-curvature="0"
             id="path5280"
             style="fill:#8d198f;fill-opacity:1;fill-rule:nonzero;stroke:none"
             d="M 0,0 C 7.501,0 15.48,-4.043 17.183,-13.247 H 9.469 c -1.649,4.203 -5,6.065 -9.469,6.065 -6.597,0 -11.012,-4.788 -11.012,-11.863 0,-6.384 4.309,-11.704 10.959,-11.704 4.628,0 8.405,2.181 9.682,6.703 H 17.29 C 15.694,-33.888 7.767,-37.984 0,-37.984 c -9.789,0 -19.045,6.597 -19.045,18.939 C -19.045,-6.65 -9.789,0.16 0,0" />
        </g>
        <g
           transform="translate(339.3818,522.6914)"
           id="g5282">
          <path
             inkscape:connector-curvature="0"
             id="path5284"
             style="fill:#8d198f;fill-opacity:1;fill-rule:nonzero;stroke:none"
             d="m 0,0 3.671,7.395 4.469,7.66 h 8.459 v -1.17 L 3.83,-7.288 V -22.184 H -4.149 V -7.288 L -16.97,13.885 v 1.17 h 8.566 L -3.776,7.129 -0.266,0 Z" />
        </g>
      </g>
    </g>
    <g
       transform="matrix(0.35277777,0,0,-0.35277777,19.893844,338.96716)"
       id="g5286">
      <g
         id="g5288">
        <g
           id="g5294">
          <g
             id="g5296">
            <path
               inkscape:connector-curvature="0"
               id="path5304"
               style="fill:url(#linearGradient5302);stroke:none"
               d="m 274.959,711.977 c -0.453,-0.741 -0.219,-1.708 0.522,-2.161 v 0 c 7.015,-4.285 11.583,-9.343 13.97,-15.464 v 0 c 0.889,-2.28 1.49,-4.681 1.839,-7.342 v 0 c 0.404,-3.067 0.025,-6.391 -0.343,-9.606 v 0 l -0.061,-0.508 c -0.942,-8.289 1.077,-15.95 6.173,-23.424 v 0 c 0.744,-1.089 1.493,-2.245 2.286,-3.535 v 0 l 0.23,-0.37 c 0.25,-0.403 0.501,-0.807 0.736,-1.217 v 0 c 0.99,-1.715 1.358,-2.887 1.124,-3.581 v 0 c -0.238,-0.713 -1.288,-1.454 -3.205,-2.261 v 0 c -0.218,-0.093 -0.436,-0.187 -0.658,-0.284 v 0 l -1.884,-0.834 c -0.771,-0.337 -1.138,-1.221 -0.835,-2.005 v 0 c 0.278,-0.714 0.439,-1.424 0.493,-2.171 v 0 c 0.177,-2.46 -1.032,-4.69 -2.315,-7.048 v 0 c -0.612,-1.127 -1.246,-2.293 -1.748,-3.524 v 0 c -1.01,-2.475 -1.608,-5.232 -1.685,-7.762 v 0 c -0.098,-3.231 -0.836,-5.445 -2.19,-6.578 v 0 c -1.168,-0.973 -2.896,-1.274 -5.285,-0.915 v 0 c -4.16,0.625 -8.09,-0.898 -12.428,-2.8 v 0 l -0.144,-0.072 c -5.709,-3.234 -11.858,-5.493 -18.276,-6.706 v 0 c -3.649,-0.69 -7.395,-1.04 -11.135,-1.04 v 0 h -20.193 c -0.867,0 -1.571,-0.704 -1.571,-1.571 v 0 c 0,-0.868 0.704,-1.572 1.571,-1.572 v 0 h 20.193 c 3.936,0 7.878,0.368 11.72,1.094 v 0 c 6.731,1.275 13.18,3.637 19.17,7.02 v 0 c 3.987,1.747 7.306,3.039 10.626,2.539 v 0 c 3.281,-0.493 5.895,0.049 7.766,1.611 v 0 c 2.105,1.758 3.19,4.668 3.317,8.896 v 0 c 0.064,2.165 0.583,4.532 1.455,6.668 v 0 c 0.434,1.071 1.001,2.111 1.599,3.211 v 0 c 1.442,2.653 2.931,5.398 2.687,8.777 v 0 c -0.04,0.558 -0.123,1.102 -0.248,1.638 v 0 l 0.598,0.264 c 0.209,0.092 0.415,0.181 0.622,0.268 v 0 c 2.055,0.867 4.251,2.039 4.962,4.155 v 0 c 0.704,2.094 -0.301,4.285 -1.379,6.154 v 0 c -0.252,0.44 -0.522,0.871 -0.789,1.303 v 0 l -0.223,0.362 c -0.823,1.332 -1.596,2.529 -2.367,3.658 v 0 c -4.653,6.823 -6.5,13.789 -5.646,21.297 v 0 l 0.059,0.506 c 0.388,3.403 0.792,6.922 0.338,10.374 v 0 c -0.377,2.872 -1.059,5.588 -2.029,8.073 v 0 c -2.644,6.785 -7.635,12.347 -15.259,17.004 v 0 c -0.255,0.157 -0.538,0.231 -0.817,0.231 v 0 c -0.529,0 -1.047,-0.268 -1.343,-0.752" />
          </g>
        </g>
      </g>
    </g>
    <g
       transform="matrix(0.35277777,0,0,-0.35277777,19.893844,338.96716)"
       id="g5306">
      <g
         id="g5308">
        <g
           id="g5314">
          <g
             id="g5316">
            <path
               inkscape:connector-curvature="0"
               id="path5324"
               style="fill:url(#linearGradient5322);stroke:none"
               d="m 204.649,712.461 c -3.053,-2.09 -5.94,-4.466 -8.582,-7.061 v 0 c -12.139,-11.924 -18.825,-27.862 -18.825,-44.877 v 0 -20.565 c 0,-0.869 0.702,-1.572 1.571,-1.572 v 0 c 0.867,0 1.571,0.703 1.571,1.572 v 0 20.565 c 0,16.165 6.352,31.306 17.885,42.635 v 0 c 2.511,2.466 5.255,4.723 8.156,6.71 v 0 c 9.949,6.812 21.608,10.413 33.715,10.413 v 0 c 7.283,0 14.421,-1.31 21.215,-3.89 v 0 c 0.507,-0.193 1.08,-0.11 1.512,0.221 v 0 c 0.404,0.31 0.631,0.792 0.614,1.295 v 0 l -0.006,0.124 c -0.068,0.687 -0.571,1.227 -1.208,1.375 v 0 c -7.089,2.666 -14.532,4.018 -22.127,4.018 v 0 c -12.743,0 -25.016,-3.791 -35.491,-10.963" />
          </g>
        </g>
      </g>
    </g>
    <g
       transform="matrix(0.35277777,0,0,-0.35277777,19.893844,338.96716)"
       id="g5326">
      <g
         id="g5328">
        <g
           id="g5334">
          <g
             id="g5336">
            <path
               inkscape:connector-curvature="0"
               id="path5344"
               style="fill:url(#linearGradient5342);stroke:none"
               d="M 177.242,630.005 V 571.43 c 0,-0.869 0.702,-1.573 1.571,-1.573 v 0 c 0.867,0 1.571,0.704 1.571,1.573 v 0 58.575 c 0,0.869 -0.704,1.573 -1.571,1.573 v 0 c -0.869,0 -1.571,-0.704 -1.571,-1.573" />
          </g>
        </g>
      </g>
    </g>
    <g
       transform="matrix(0.35277777,0,0,-0.35277777,19.893844,338.96716)"
       id="g5346">
      <g
         id="g5348">
        <g
           id="g5354">
          <g
             id="g5356">
            <path
               inkscape:connector-curvature="0"
               id="path5364"
               style="fill:url(#linearGradient5362);stroke:none"
               d="m 213.266,607.451 c -0.868,0 -1.573,-0.704 -1.573,-1.572 v 0 -14.283 c 0,-0.868 0.705,-1.571 1.573,-1.571 v 0 c 0.866,0 1.571,0.703 1.571,1.571 v 0 12.712 h 25.303 c 0.867,0 1.571,0.703 1.571,1.571 v 0 c 0,0.868 -0.704,1.572 -1.571,1.572 v 0 z" />
          </g>
        </g>
      </g>
    </g>
    <g
       transform="matrix(0.35277777,0,0,-0.35277777,19.893844,338.96716)"
       id="g5366">
      <g
         id="g5368">
        <g
           id="g5374">
          <g
             id="g5376">
            <path
               inkscape:connector-curvature="0"
               id="path5384"
               style="fill:url(#linearGradient5382);stroke:none"
               d="m 286.018,687.904 c -0.858,-0.112 -1.465,-0.903 -1.352,-1.762 v 0 c 0.296,-2.254 -0.022,-5.036 -0.361,-7.982 v 0 l -0.056,-0.509 c -1.117,-9.811 1.336,-19.213 7.292,-27.944 v 0 c 0.473,-0.694 0.951,-1.421 1.448,-2.204 v 0 l -5.842,-2.568 c -0.77,-0.338 -1.137,-1.222 -0.835,-2.007 v 0 l 2.313,-5.96 c 0.04,-0.106 0.052,-0.169 0.055,-0.237 v 0 c 0.019,-0.543 -0.907,-2.247 -1.52,-3.375 v 0 c -0.666,-1.225 -1.42,-2.614 -2.062,-4.189 v 0 c -1.324,-3.241 -2.078,-6.729 -2.179,-10.084 v 0 c -0.012,-0.415 -0.037,-0.762 -0.07,-1.051 v 0 c -0.878,0.119 -1.774,0.18 -2.667,0.18 v 0 c -4.777,0 -8.955,-1.658 -13.17,-3.506 v 0 l -0.314,-0.137 -0.142,-0.072 -0.3,-0.169 c -5.163,-2.927 -10.758,-4.952 -16.628,-6.021 v 0 c -0.855,-0.155 -1.421,-0.973 -1.265,-1.826 v 0 c 0.139,-0.759 0.799,-1.29 1.545,-1.29 v 0 c 0.092,0 0.188,0.009 0.282,0.025 v 0 c 6.218,1.131 12.146,3.277 17.616,6.378 v 0 l 0.468,0.234 c 3.897,1.708 7.74,3.241 11.908,3.241 v 0 c 0.827,0 1.657,-0.061 2.467,-0.183 v 0 c 0.461,-0.069 0.883,-0.104 1.276,-0.104 v 0 h 0.002 l 0.274,0.008 c 0.632,0.038 1.179,0.45 1.389,1.047 v 0 c 0.188,0.531 0.421,1.509 0.47,3.151 v 0 c 0.091,2.984 0.765,6.093 1.947,8.991 v 0 c 0.577,1.415 1.288,2.723 1.914,3.877 v 0 c 1.072,1.973 1.998,3.676 1.895,5.101 v 0 c -0.029,0.399 -0.113,0.764 -0.262,1.148 v 0 l -1.767,4.559 6.128,2.695 c 0.413,0.184 0.728,0.536 0.864,0.967 v 0 c 0.135,0.431 0.08,0.899 -0.155,1.286 v 0 l -0.289,0.467 c -0.769,1.246 -1.489,2.358 -2.2,3.4 v 0 c -5.517,8.09 -7.793,16.775 -6.763,25.817 v 0 l 0.056,0.507 c 0.36,3.142 0.701,6.11 0.354,8.749 v 0 c -0.104,0.789 -0.777,1.366 -1.552,1.366 v 0 z" />
          </g>
        </g>
      </g>
    </g>
    <g
       transform="matrix(0.35277777,0,0,-0.35277777,19.893844,338.96716)"
       id="g5386">
      <g
         id="g5388">
        <g
           id="g5394">
          <g
             id="g5396">
            <path
               inkscape:connector-curvature="0"
               id="path5404"
               style="fill:url(#linearGradient5402);stroke:none"
               d="m 208.615,707.05 c -0.717,-0.488 -0.904,-1.465 -0.416,-2.183 v 0 c 0.488,-0.718 1.466,-0.904 2.183,-0.415 v 0 c 8.805,5.984 19.095,9.147 29.758,9.147 v 0 c 6.47,0 12.809,-1.163 18.84,-3.454 v 0 l 3.376,-1.283 c 3.536,-1.429 6.525,-2.876 9.134,-4.424 v 0 c 6.086,-3.608 9.815,-7.584 11.735,-12.513 v 0 c 0.243,-0.621 0.837,-1 1.466,-1 v 0 c 0.189,0 0.382,0.034 0.568,0.109 v 0 c 0.81,0.315 1.21,1.224 0.895,2.033 v 0 c -2.159,5.539 -6.431,10.144 -13.062,14.075 v 0 c -2.746,1.629 -5.873,3.145 -9.588,4.646 v 0 l -3.409,1.295 c -6.388,2.428 -13.103,3.659 -19.955,3.659 v 0 c -11.295,0 -22.196,-3.352 -31.525,-9.692" />
          </g>
        </g>
      </g>
    </g>
    <g
       transform="matrix(0.35277777,0,0,-0.35277777,19.893844,338.96716)"
       id="g5406">
      <g
         id="g5408">
        <g
           id="g5414">
          <g
             id="g5416">
            <path
               inkscape:connector-curvature="0"
               id="path5424"
               style="fill:url(#linearGradient5422);stroke:none"
               d="m 200.407,700.258 c -10.63,-10.63 -16.484,-24.741 -16.484,-39.735 v 0 -88.422 c 0,-0.868 0.704,-1.57 1.571,-1.57 v 0 c 0.868,0 1.572,0.702 1.572,1.57 v 0 88.422 c 0,14.155 5.528,27.477 15.563,37.512 v 0 c 0.613,0.614 0.613,1.609 0,2.223 v 0 c -0.307,0.307 -0.71,0.46 -1.112,0.46 v 0 c -0.402,0 -0.804,-0.153 -1.11,-0.46" />
          </g>
        </g>
      </g>
    </g>
    <g
       transform="matrix(0.35277777,0,0,-0.35277777,19.893844,338.96716)"
       id="g5426">
      <g
         id="g5428">
        <g
           id="g5434">
          <g
             id="g5436">
            <path
               inkscape:connector-curvature="0"
               id="path5444"
               style="fill:url(#linearGradient5442);stroke:none"
               d="m 278.062,624.811 c -5.2,-0.402 -9.634,-2.189 -13.732,-3.985 v 0 l -0.628,-0.275 -0.143,-0.072 -0.595,-0.337 c -4.314,-2.444 -8.98,-4.172 -13.869,-5.135 v 0 c -2.947,-0.582 -5.959,-0.875 -8.955,-0.875 v 0 h -33.556 c -0.867,0 -1.571,-0.704 -1.571,-1.571 v 0 -29.591 c 0,-0.867 0.704,-1.57 1.571,-1.57 v 0 c 0.868,0 1.572,0.703 1.572,1.57 v 0 28.018 h 31.984 c 3.199,0 6.417,0.314 9.561,0.935 v 0 c 5.222,1.027 10.205,2.873 14.812,5.485 v 0 l 0.524,0.297 0.555,0.243 c 3.85,1.688 8.003,3.365 12.714,3.73 v 0 c 0.865,0.067 1.512,0.822 1.445,1.688 v 0 c -0.063,0.824 -0.751,1.45 -1.569,1.45 v 0 z" />
          </g>
        </g>
      </g>
    </g>
    <g
       transform="matrix(0.35277777,0,0,-0.35277777,19.893844,338.96716)"
       id="g5446">
      <g
         id="g5448">
        <g
           id="g5454">
          <g
             id="g5456">
            <path
               inkscape:connector-curvature="0"
               id="path5464"
               style="fill:url(#linearGradient5462);stroke:none"
               d="m 267.232,700.996 c -0.438,-0.749 -0.185,-1.712 0.564,-2.151 v 0 c 6.457,-3.774 8.345,-7.141 9.204,-9.345 v 0 c 0.493,-1.267 0.834,-2.65 1.042,-4.227 v 0 c 0.188,-1.443 -0.084,-3.827 -0.374,-6.354 v 0 l -0.058,-0.511 c -1.107,-9.731 0.778,-19.109 5.605,-27.902 v 0 l -4.607,-2.025 c -0.772,-0.339 -1.138,-1.223 -0.834,-2.007 v 0 l 3.709,-9.57 c -0.067,-0.126 -0.133,-0.247 -0.193,-0.357 v 0 c -0.711,-1.308 -1.596,-2.935 -2.379,-4.856 v 0 c -0.328,-0.804 0.058,-1.721 0.861,-2.048 v 0 c 0.195,-0.08 0.395,-0.117 0.593,-0.117 v 0 c 0.619,0 1.207,0.369 1.457,0.978 v 0 c 0.716,1.759 1.555,3.302 2.229,4.54 v 0 c 0.164,0.303 0.364,0.672 0.549,1.023 v 0 c 0.211,0.401 0.238,0.876 0.074,1.299 v 0 l -3.427,8.842 4.83,2.123 c 0.412,0.181 0.726,0.529 0.865,0.958 v 0 c 0.136,0.428 0.083,0.895 -0.145,1.28 v 0 c -5.118,8.635 -7.157,17.881 -6.065,27.485 v 0 l 0.059,0.51 c 0.311,2.722 0.607,5.292 0.366,7.118 v 0 c -0.24,1.832 -0.642,3.452 -1.228,4.959 v 0 c -1.031,2.642 -3.244,6.648 -10.546,10.918 v 0 c -0.251,0.146 -0.522,0.215 -0.793,0.215 v 0 c -0.54,0 -1.066,-0.279 -1.358,-0.778" />
          </g>
        </g>
      </g>
    </g>
    <g
       transform="matrix(0.35277777,0,0,-0.35277777,19.893844,338.96716)"
       id="g5466">
      <g
         id="g5468">
        <g
           id="g5474">
          <g
             id="g5476">
            <path
               inkscape:connector-curvature="0"
               id="path5484"
               style="fill:url(#linearGradient5482);stroke:none"
               d="m 212.348,701.51 c -2.868,-1.95 -5.541,-4.209 -7.944,-6.715 v 0 c -8.898,-9.275 -13.799,-21.446 -13.799,-34.272 v 0 -15.39 c 0,-0.866 0.704,-1.57 1.571,-1.57 v 0 c 0.868,0 1.571,0.704 1.571,1.57 v 0 15.39 c 0,12.011 4.59,23.409 12.924,32.097 v 0 c 2.253,2.346 4.758,4.464 7.445,6.292 v 0 c 7.699,5.237 16.698,8.006 26.024,8.006 v 0 c 5.654,0 11.196,-1.017 16.467,-3.019 v 0 c 0.813,-0.31 1.719,0.1 2.027,0.911 v 0 c 0.309,0.812 -0.1,1.72 -0.912,2.027 v 0 c -5.628,2.139 -11.544,3.223 -17.582,3.223 v 0 c -9.959,0 -19.569,-2.956 -27.792,-8.55" />
          </g>
        </g>
      </g>
    </g>
    <g
       transform="matrix(0.35277777,0,0,-0.35277777,19.893844,338.96716)"
       id="g5486">
      <g
         id="g5488">
        <g
           id="g5494">
          <g
             id="g5496">
            <path
               inkscape:connector-curvature="0"
               id="path5504"
               style="fill:url(#linearGradient5502);stroke:none"
               d="m 190.605,636.291 v -62.248 c 0,-0.867 0.704,-1.571 1.571,-1.571 v 0 c 0.868,0 1.571,0.704 1.571,1.571 v 0 62.248 c 0,0.868 -0.703,1.571 -1.571,1.571 v 0 c -0.867,0 -1.571,-0.703 -1.571,-1.571" />
          </g>
        </g>
      </g>
    </g>
    <g
       transform="matrix(0.35277777,0,0,-0.35277777,19.893844,338.96716)"
       id="g5506">
      <g
         id="g5508">
        <g
           id="g5514">
          <g
             id="g5516">
            <path
               inkscape:connector-curvature="0"
               id="path5524"
               style="fill:url(#linearGradient5522);stroke:none"
               d="m 205.539,620.814 c -0.867,0 -1.571,-0.704 -1.571,-1.572 v 0 c 0,-0.867 0.704,-1.571 1.571,-1.571 v 0 h 34.601 c 0.867,0 1.571,0.704 1.571,1.571 v 0 c 0,0.868 -0.704,1.572 -1.571,1.572 v 0 z" />
          </g>
        </g>
      </g>
    </g>
    <g
       transform="matrix(0.35277777,0,0,-0.35277777,19.893844,338.96716)"
       id="g5526">
      <g
         id="g5528">
        <g
           id="g5534">
          <g
             id="g5536">
            <path
               inkscape:connector-curvature="0"
               id="path5544"
               style="fill:url(#linearGradient5542);stroke:none"
               d="m 274.475,637.969 c -0.691,-1.332 -1.264,-2.561 -1.752,-3.753 v 0 c -0.5,-1.228 -0.947,-2.49 -1.336,-3.763 v 0 c -3.552,-0.892 -6.773,-2.207 -9.739,-3.509 v 0 l -0.941,-0.411 -0.144,-0.072 -0.891,-0.505 c -3.345,-1.895 -6.951,-3.292 -10.719,-4.15 v 0 c -0.846,-0.192 -1.375,-1.035 -1.182,-1.882 v 0 c 0.165,-0.728 0.814,-1.222 1.53,-1.222 v 0 c 0.116,0 0.233,0.014 0.351,0.04 v 0 c 4.065,0.926 7.959,2.433 11.568,4.48 v 0 l 0.822,0.464 0.868,0.381 c 2.864,1.255 6.24,2.667 10.077,3.537 v 0 c 0.562,0.128 1.009,0.553 1.167,1.108 v 0 c 0.408,1.46 0.907,2.913 1.48,4.316 v 0 c 0.451,1.104 0.985,2.247 1.631,3.495 v 0 c 0.399,0.771 0.098,1.718 -0.673,2.118 v 0 c -0.23,0.12 -0.477,0.177 -0.721,0.177 v 0 c -0.568,0 -1.117,-0.309 -1.396,-0.849" />
          </g>
        </g>
      </g>
    </g>
    <g
       transform="matrix(0.35277777,0,0,-0.35277777,19.893844,338.96716)"
       id="g5546">
      <g
         id="g5548">
        <g
           id="g5554">
          <g
             id="g5556">
            <path
               inkscape:connector-curvature="0"
               id="path5564"
               style="fill:url(#linearGradient5562);stroke:none"
               d="m 216.193,696.047 c -0.718,-0.485 -0.906,-1.462 -0.42,-2.179 v 0 c 0.486,-0.72 1.463,-0.91 2.182,-0.423 v 0 c 6.569,4.442 14.24,6.791 22.185,6.791 v 0 c 4.843,0 9.584,-0.869 14.095,-2.583 v 0 l 3.236,-1.229 c 2.711,-1.102 5.063,-2.234 6.991,-3.368 v 0 c 3.427,-2.014 5.551,-4.029 6.314,-5.983 v 0 c 0.294,-0.759 0.505,-1.632 0.641,-2.669 v 0 c 0.082,-0.629 -0.246,-3.493 -0.387,-4.723 v 0 l -0.059,-0.517 c -0.99,-8.707 0.118,-17.209 3.293,-25.293 v 0 l -4.196,-1.845 c -0.795,-0.349 -1.157,-1.276 -0.808,-2.071 v 0 c 0.259,-0.59 0.834,-0.94 1.44,-0.94 v 0 c 0.211,0 0.426,0.043 0.631,0.132 v 0 l 5.601,2.463 c 0.787,0.346 1.151,1.263 0.813,2.055 v 0 c -3.41,8.005 -4.637,16.465 -3.651,25.145 v 0 l 0.06,0.521 c 0.289,2.533 0.503,4.545 0.378,5.482 v 0 c -0.169,1.29 -0.441,2.403 -0.829,3.402 v 0 c -1.039,2.665 -3.541,5.136 -7.649,7.55 v 0 c -2.059,1.211 -4.549,2.412 -7.434,3.584 v 0 l -3.27,1.242 c -4.868,1.849 -9.986,2.788 -15.21,2.788 v 0 c -8.575,0 -16.855,-2.535 -23.947,-7.332" />
          </g>
        </g>
      </g>
    </g>
    <g
       transform="matrix(0.35277777,0,0,-0.35277777,19.893844,338.96716)"
       id="g5566">
      <g
         id="g5568">
        <g
           id="g5574">
          <g
             id="g5576">
            <path
               inkscape:connector-curvature="0"
               id="path5584"
               style="fill:url(#linearGradient5582);stroke:none"
               d="m 208.432,689.324 c -7.188,-7.906 -11.146,-18.134 -11.146,-28.801 v 0 -83.468 c 0,-0.868 0.704,-1.573 1.572,-1.573 v 0 c 0.867,0 1.571,0.705 1.571,1.573 v 0 83.468 c 0,9.882 3.668,19.36 10.328,26.687 v 0 c 0.584,0.643 0.537,1.636 -0.106,2.221 v 0 c -0.301,0.273 -0.679,0.408 -1.055,0.408 v 0 c -0.429,0 -0.854,-0.173 -1.164,-0.515" />
          </g>
        </g>
      </g>
    </g>
    <g
       transform="matrix(0.35277777,0,0,-0.35277777,19.893844,338.96716)"
       id="g5586">
      <g
         id="g5588">
        <g
           id="g5594">
          <g
             id="g5596">
            <path
               inkscape:connector-curvature="0"
               id="path5604"
               style="fill:url(#linearGradient5602);stroke:none"
               d="m 219.928,690.51 c -2.985,-2.018 -5.648,-4.463 -7.918,-7.267 v 0 c -5.186,-6.41 -8.042,-14.478 -8.042,-22.72 v 0 -34.599 c 0,-0.868 0.704,-1.572 1.571,-1.572 v 0 c 0.868,0 1.572,0.704 1.572,1.572 v 0 34.599 c 0,7.524 2.607,14.89 7.343,20.743 v 0 c 2.073,2.563 4.507,4.797 7.234,6.641 v 0 c 5.464,3.694 11.845,5.646 18.452,5.646 v 0 c 3.595,0 7.137,-0.576 10.522,-1.717 v 0 c 0.402,-0.135 0.802,-0.278 1.199,-0.429 v 0 l 3.163,-1.201 c 1.875,-0.764 3.541,-1.535 4.958,-2.295 v 0 c 3.481,-1.865 4.442,-3.12 4.597,-3.347 v 0 c 0.043,-0.126 0.101,-0.337 0.159,-0.665 v 0 c -0.045,-0.834 -0.26,-2.696 -0.345,-3.452 v 0 l -0.06,-0.529 c -0.866,-7.613 -0.302,-15.135 1.679,-22.376 v 0 l -4.486,-1.97 c -0.769,-0.34 -1.136,-1.224 -0.832,-2.008 v 0 l 6.196,-15.986 c -0.123,-0.281 -0.239,-0.56 -0.352,-0.837 v 0 c -0.115,-0.279 -0.224,-0.56 -0.334,-0.842 v 0 c -2.702,-0.889 -5.162,-1.925 -7.239,-2.834 v 0 l -1.255,-0.549 -0.142,-0.073 -1.187,-0.671 c -3.244,-1.84 -6.761,-3.105 -10.451,-3.764 v 0 c -1.909,-0.34 -3.857,-0.513 -5.79,-0.513 v 0 h -21.238 c -0.868,0 -1.572,-0.703 -1.572,-1.571 v 0 c 0,-0.868 0.704,-1.572 1.572,-1.572 v 0 h 21.238 c 2.117,0 4.251,0.19 6.341,0.563 v 0 c 4.042,0.721 7.895,2.108 11.449,4.122 v 0 l 1.117,0.633 1.18,0.516 c 2.186,0.959 4.803,2.058 7.649,2.95 v 0 c 0.463,0.145 0.835,0.499 1.003,0.955 v 0 c 0.182,0.492 0.371,0.98 0.568,1.461 v 0 c 0.182,0.445 0.374,0.892 0.576,1.346 v 0 c 0.172,0.383 0.184,0.819 0.032,1.21 v 0 l -5.888,15.189 4.366,1.92 c 0.724,0.319 1.101,1.13 0.873,1.889 v 0 c -2.165,7.243 -2.822,14.797 -1.95,22.457 v 0 l 0.063,0.557 c 0.166,1.46 0.341,3.056 0.365,3.821 v 0 c 0.004,0.098 -0.004,0.195 -0.018,0.291 v 0 c -0.094,0.621 -0.222,1.13 -0.391,1.563 v 0 c -0.197,0.497 -1.211,2.314 -6.008,4.887 v 0 c -1.513,0.81 -3.281,1.629 -5.292,2.448 v 0 l -3.198,1.215 c -0.435,0.164 -0.873,0.322 -1.312,0.47 v 0 c -3.71,1.249 -7.588,1.882 -11.525,1.882 v 0 c -7.237,0 -14.227,-2.14 -20.212,-6.187" />
          </g>
        </g>
      </g>
    </g>
    <g
       transform="matrix(0.35277777,0,0,-0.35277777,19.893844,338.96716)"
       id="g5606">
      <g
         id="g5608">
        <g
           id="g5614">
          <g
             id="g5616">
            <path
               inkscape:connector-curvature="0"
               id="path5624"
               style="fill:url(#linearGradient5622);stroke:none"
               d="m 210.649,645.133 v -12.528 c 0,-0.867 0.704,-1.571 1.572,-1.571 v 0 h 27.919 c 0.867,0 1.571,0.704 1.571,1.571 v 0 c 0,0.868 -0.704,1.572 -1.571,1.572 v 0 h -26.348 v 10.956 c 0,0.869 -0.703,1.573 -1.571,1.573 v 0 c -0.868,0 -1.572,-0.704 -1.572,-1.573" />
          </g>
        </g>
      </g>
    </g>
    <g
       transform="matrix(0.35277777,0,0,-0.35277777,19.893844,338.96716)"
       id="g5626">
      <g
         id="g5628">
        <g
           id="g5634">
          <g
             id="g5636">
            <path
               inkscape:connector-curvature="0"
               id="path5644"
               style="fill:url(#linearGradient5642);stroke:none"
               d="m 253.051,659.142 c -0.809,-0.313 -1.211,-1.224 -0.897,-2.033 v 0 l 6.547,-16.89 c -0.92,-0.382 -1.746,-0.739 -2.418,-1.034 v 0 l -1.567,-0.687 -0.143,-0.071 -1.484,-0.842 c -2.461,-1.394 -5.125,-2.378 -7.916,-2.921 v 0 c -0.852,-0.167 -1.408,-0.991 -1.241,-1.843 v 0 c 0.145,-0.751 0.803,-1.271 1.539,-1.271 v 0 c 0.1,0 0.202,0.009 0.305,0.029 v 0 c 3.124,0.609 6.106,1.71 8.862,3.272 v 0 l 1.414,0.801 1.493,0.654 c 0.984,0.431 2.299,1 3.756,1.576 v 0 c 0.805,0.318 1.201,1.224 0.889,2.03 v 0 l -7.106,18.333 c -0.241,0.622 -0.835,1.003 -1.465,1.003 v 0 c -0.189,0 -0.381,-0.034 -0.568,-0.106" />
          </g>
        </g>
      </g>
    </g>
    <g
       transform="matrix(0.35277777,0,0,-0.35277777,19.893844,338.96716)"
       id="g5646">
      <g
         id="g5648">
        <g
           id="g5654">
          <g
             id="g5656">
            <path
               inkscape:connector-curvature="0"
               id="path5664"
               style="fill:url(#linearGradient5662);stroke:none"
               d="m 256.783,683.86 c -0.429,-0.756 -0.163,-1.715 0.592,-2.142 v 0 c 0.14,-0.08 0.278,-0.16 0.409,-0.238 v 0 c -0.047,-0.42 -0.091,-0.806 -0.091,-0.806 v 0 c -0.784,-6.908 -0.506,-13.796 0.828,-20.474 v 0 c 0.151,-0.747 0.807,-1.263 1.54,-1.263 v 0 c 0.102,0 0.205,0.011 0.31,0.031 v 0 c 0.849,0.17 1.402,0.998 1.234,1.849 v 0 c -1.273,6.357 -1.537,12.918 -0.789,19.503 v 0 c 0,0 0.164,1.446 0.202,1.795 v 0 c 0.063,0.58 -0.202,1.149 -0.687,1.475 v 0 c -0.416,0.28 -0.89,0.569 -1.407,0.862 v 0 c -0.246,0.138 -0.513,0.205 -0.774,0.205 v 0 c -0.548,0 -1.078,-0.287 -1.367,-0.797" />
          </g>
        </g>
      </g>
    </g>
    <g
       transform="matrix(0.35277777,0,0,-0.35277777,19.893844,338.96716)"
       id="g5666">
      <g
         id="g5668">
        <g
           id="g5674">
          <g
             id="g5676">
            <path
               inkscape:connector-curvature="0"
               id="path5684"
               style="fill:url(#linearGradient5682);stroke:none"
               d="m 223.661,684.971 c -0.719,-0.486 -0.908,-1.463 -0.421,-2.182 v 0 c 0.303,-0.45 0.798,-0.693 1.302,-0.693 v 0 c 0.303,0 0.609,0.089 0.879,0.271 v 0 c 4.359,2.948 9.448,4.506 14.719,4.506 v 0 c 2.448,0 4.871,-0.337 7.202,-1.001 v 0 c 0.238,-0.067 0.406,-0.112 0.546,-0.148 v 0 c 0.29,-0.078 0.399,-0.107 0.851,-0.28 v 0 c 0.811,-0.306 1.719,0.099 2.026,0.912 v 0 c 0.31,0.811 -0.098,1.719 -0.911,2.027 v 0 c -0.577,0.221 -0.784,0.278 -1.161,0.378 v 0 c -0.126,0.033 -0.277,0.074 -0.489,0.134 v 0 c -2.613,0.743 -5.326,1.121 -8.064,1.121 v 0 c -5.902,0 -11.598,-1.745 -16.479,-5.045" />
          </g>
        </g>
      </g>
    </g>
    <g
       transform="matrix(0.35277777,0,0,-0.35277777,19.893844,338.96716)"
       id="g5686">
      <g
         id="g5688">
        <g
           id="g5694">
          <g
             id="g5696">
            <path
               inkscape:connector-curvature="0"
               id="path5704"
               style="fill:url(#linearGradient5702);stroke:none"
               d="m 216.607,678.28 c -3.897,-5.154 -5.958,-11.295 -5.958,-17.757 v 0 -5.375 c 0,-0.868 0.704,-1.572 1.572,-1.572 v 0 c 0.868,0 1.571,0.704 1.571,1.572 v 0 5.375 c 0,5.774 1.84,11.258 5.321,15.861 v 0 c 0.524,0.692 0.387,1.678 -0.305,2.202 v 0 c -0.284,0.214 -0.617,0.318 -0.947,0.318 v 0 c -0.476,0 -0.946,-0.215 -1.254,-0.624" />
          </g>
        </g>
      </g>
    </g>
    <g
       transform="matrix(0.35277777,0,0,-0.35277777,19.893844,338.96716)"
       id="g6286">
      <g
         clip-path="url(#clipPath6292)"
         id="g6288">
        <g
           transform="translate(170.0176,473.498)"
           id="g6294">
          <path
             inkscape:connector-curvature="0"
             id="path6296"
             style="fill:#8d198f;fill-opacity:1;fill-rule:nonzero;stroke:none"
             d="m 0,0 c 2.558,0 4.881,1.69 4.881,5.28 0,3.496 -2.299,5.232 -4.857,5.232 -2.581,0 -4.881,-1.758 -4.881,-5.232 C -4.857,1.69 -2.627,0 0,0 m -0.046,-3.214 c -4.389,0 -8.354,2.956 -8.354,8.494 0,5.538 4.059,8.471 8.424,8.471 4.294,0 8.353,-2.957 8.353,-8.471 0,-4.999 -3.449,-8.494 -8.423,-8.494" />
        </g>
        <g
           transform="translate(193.1079,479.9512)"
           id="g6298">
          <path
             inkscape:connector-curvature="0"
             id="path6300"
             style="fill:#8d198f;fill-opacity:1;fill-rule:nonzero;stroke:none"
             d="M 0,0 V -9.385 H -3.496 V 7.11 h 1.102 L 6.829,-2.276 V 7.04 h 3.52 V -9.432 H 9.292 Z" />
        </g>
        <g
           transform="translate(225.6543,483.917)"
           id="g6302">
          <path
             inkscape:connector-curvature="0"
             id="path6304"
             style="fill:#8d198f;fill-opacity:1;fill-rule:nonzero;stroke:none"
             d="m 0,0 h -6.523 v -3.333 h 6.101 v -3.072 h -6.101 v -3.755 h 6.711 v -3.192 H -10.066 V 3.075 H 0 Z" />
        </g>
        <g
           transform="translate(238.749,475.4224)"
           id="g6306">
          <path
             inkscape:connector-curvature="0"
             id="path6308"
             style="fill:#8d198f;fill-opacity:1;fill-rule:nonzero;stroke:none"
             d="m 0,0 c 0.07,-1.502 1.713,-2.135 3.309,-2.135 1.454,0 3.144,0.352 3.144,2.065 0,1.877 -2.018,2.041 -3.591,2.159 -2.98,0.258 -5.983,1.267 -5.983,4.669 0,3.638 2.979,5.162 6.241,5.162 3.075,0 6.266,-1.29 6.266,-4.974 H 6.101 C 5.913,8.283 4.528,8.847 3.12,8.847 1.713,8.847 0.329,8.096 0.329,6.83 0.329,5.375 1.76,5.046 3.472,4.858 6.946,4.552 9.925,3.778 9.925,-0.07 c 0,-3.872 -3.354,-5.069 -6.594,-5.138 -3.285,0 -6.686,1.619 -6.686,5.208 z" />
        </g>
        <g
           transform="translate(258.248,483.9404)"
           id="g6310">
          <path
             inkscape:connector-curvature="0"
             id="path6312"
             style="fill:#8d198f;fill-opacity:1;fill-rule:nonzero;stroke:none"
             d="M 0,0 V 3.051 H 12.156 V 0 H 7.791 V -13.375 H 4.389 V 0 Z" />
        </g>
        <g
           transform="translate(288.1904,473.498)"
           id="g6314">
          <path
             inkscape:connector-curvature="0"
             id="path6316"
             style="fill:#8d198f;fill-opacity:1;fill-rule:nonzero;stroke:none"
             d="m 0,0 c 2.557,0 4.881,1.69 4.881,5.28 0,3.496 -2.3,5.232 -4.859,5.232 -2.581,0 -4.879,-1.758 -4.879,-5.232 C -4.857,1.69 -2.629,0 0,0 m -0.047,-3.214 c -4.388,0 -8.353,2.956 -8.353,8.494 0,5.538 4.059,8.471 8.422,8.471 4.295,0 8.354,-2.957 8.354,-8.471 0,-4.999 -3.449,-8.494 -8.423,-8.494" />
        </g>
        <g
           transform="translate(314.8232,478.2383)"
           id="g6318">
          <path
             inkscape:connector-curvature="0"
             id="path6320"
             style="fill:#8d198f;fill-opacity:1;fill-rule:nonzero;stroke:none"
             d="m 0,0 c 1.502,0 2.486,1.314 2.486,2.887 0,1.524 -0.938,2.816 -2.486,2.816 -1.197,0.023 -2.37,0 -3.566,0 V 0 Z M -7.016,-7.649 V 8.775 c 2.346,0.025 4.669,0 7.016,0 3.824,0 5.843,-2.885 5.843,-5.983 0,-3.05 -2.089,-5.795 -5.843,-5.795 h -3.496 v -4.646 z" />
        </g>
      </g>
    </g>
  </g>
</svg>
